<svg version="1.1" xmlns="http://www.w3.org/2000/svg" width="32" height="32" viewBox="0 0 32 32">
<path d="M31.333 29.333h-30.667c-0.368 0-0.667-0.3-0.667-0.667v-25.333c0-0.367 0.299-0.667 0.667-0.667h30.667c0.367 0 0.667 0.3 0.667 0.667v25.333c0 0.367-0.3 0.667-0.667 0.667zM1.333 28h29.333v-24h-29.333v24zM30.667 9.333h-29.333c-0.368 0-0.667-0.3-0.667-0.667s0.299-0.667 0.667-0.667h29.333c0.367 0 0.667 0.3 0.667 0.667s-0.3 0.667-0.667 0.667zM23.584 26.167c-2.575 0-4.667-2.093-4.667-4.667s2.092-4.667 4.667-4.667c2.573 0 4.667 2.093 4.667 4.667s-2.095 4.667-4.667 4.667zM23.584 18.167c-1.839 0-3.333 1.495-3.333 3.333s1.495 3.333 3.333 3.333c1.836 0 3.333-1.495 3.333-3.333s-1.496-3.333-3.333-3.333zM24 23.391c-0.161 0-0.323-0.057-0.451-0.176l-1.333-1.224c-0.272-0.249-0.289-0.671-0.040-0.941 0.251-0.271 0.672-0.287 0.941-0.039l0.868 0.8 4.881-4.783c0.263-0.253 0.685-0.251 0.943 0.011 0.257 0.259 0.253 0.689-0.008 0.943l-5.333 5.224c-0.131 0.121-0.3 0.185-0.468 0.185zM4 6c0 0.368-0.299 0.667-0.667 0.667s-0.667-0.299-0.667-0.667c0-0.368 0.299-0.667 0.667-0.667s0.667 0.299 0.667 0.667zM6.667 6c0 0.368-0.299 0.667-0.667 0.667s-0.667-0.299-0.667-0.667c0-0.368 0.299-0.667 0.667-0.667s0.667 0.299 0.667 0.667zM9.333 6c0 0.368-0.299 0.667-0.667 0.667s-0.667-0.299-0.667-0.667c0-0.368 0.299-0.667 0.667-0.667s0.667 0.299 0.667 0.667z"></path>
</svg>
