<svg version="1.1" xmlns="http://www.w3.org/2000/svg" width="32" height="32" viewBox="0 0 32 32">
<title>Big-Data</title>
<path d="M28.667 32h-25.333c-2.555 0-3.333-0.779-3.333-3.333v-21.333c0-0.368 0.299-0.667 0.667-0.667h30.667c0.367 0 0.667 0.299 0.667 0.667v21.333c0 2.555-0.779 3.333-3.333 3.333zM1.333 8v20.667c0 1.832 0.168 2 2 2h25.333c1.832 0 2-0.168 2-2v-20.667h-29.333zM6 29.333c-1.103 0-2-0.897-2-2s0.897-2 2-2 2 0.897 2 2-0.897 2-2 2zM6 26.667c-0.368 0-0.667 0.3-0.667 0.667s0.299 0.667 0.667 0.667 0.667-0.3 0.667-0.667-0.299-0.667-0.667-0.667zM6 21.333c-1.103 0-2-0.897-2-2s0.897-2 2-2 2 0.897 2 2-0.897 2-2 2zM6 18.667c-0.368 0-0.667 0.3-0.667 0.667s0.299 0.667 0.667 0.667 0.667-0.3 0.667-0.667-0.299-0.667-0.667-0.667zM30.667 24h-29.333c-0.368 0-0.667-0.3-0.667-0.667s0.299-0.667 0.667-0.667h29.333c0.367 0 0.667 0.3 0.667 0.667s-0.3 0.667-0.667 0.667zM30.667 16h-29.333c-0.368 0-0.667-0.299-0.667-0.667s0.299-0.667 0.667-0.667h29.333c0.367 0 0.667 0.299 0.667 0.667s-0.3 0.667-0.667 0.667zM26.667 28h-6.667c-0.367 0-0.667-0.3-0.667-0.667s0.3-0.667 0.667-0.667h6.667c0.367 0 0.667 0.3 0.667 0.667s-0.3 0.667-0.667 0.667zM26.667 20h-6.667c-0.367 0-0.667-0.3-0.667-0.667s0.3-0.667 0.667-0.667h6.667c0.367 0 0.667 0.3 0.667 0.667s-0.3 0.667-0.667 0.667zM6 13.333c-1.103 0-2-0.897-2-2s0.897-2 2-2 2 0.897 2 2-0.897 2-2 2zM6 10.667c-0.368 0-0.667 0.3-0.667 0.667s0.299 0.667 0.667 0.667 0.667-0.3 0.667-0.667-0.299-0.667-0.667-0.667zM26.667 12h-6.667c-0.367 0-0.667-0.299-0.667-0.667s0.3-0.667 0.667-0.667h6.667c0.367 0 0.667 0.299 0.667 0.667s-0.3 0.667-0.667 0.667zM31.333 8h-30.667c-0.256 0-0.489-0.147-0.601-0.377-0.111-0.231-0.080-0.505 0.080-0.705l5.333-6.667c0.127-0.157 0.319-0.251 0.521-0.251h20c0.203 0 0.393 0.092 0.521 0.251l5.333 6.667c0.16 0.2 0.192 0.475 0.081 0.705-0.113 0.231-0.348 0.377-0.603 0.377zM2.055 6.667h27.892l-4.267-5.333h-19.36l-4.265 5.333z"></path>
</svg>
