<svg version="1.1" xmlns="http://www.w3.org/2000/svg" width="32" height="32" viewBox="0 0 32 32">
<path d="M22.004 23.327h-8c-0.368 0-0.667-0.299-0.667-0.667v-6.667c0-0.368 0.299-0.667 0.667-0.667h8c0.368 0 0.667 0.299 0.667 0.667v6.667c0 0.368-0.299 0.667-0.667 0.667zM14.671 21.993h6.667v-5.333h-6.667v5.333zM20.671 15.993c-0.368 0-0.667-0.299-0.667-0.667v-1.277c0-1.008-0.916-1.861-2-1.861-1.065 0-2 0.896-2 1.917v1.221c0 0.368-0.299 0.667-0.667 0.667s-0.667-0.299-0.667-0.667v-1.221c0-1.761 1.527-3.251 3.333-3.251 1.805 0 3.333 1.463 3.333 3.195v1.277c0 0.368-0.299 0.667-0.667 0.667zM17.337 21.453c-0.167 0-0.335-0.063-0.465-0.189l-1.333-1.293c-0.264-0.256-0.271-0.68-0.015-0.943 0.256-0.265 0.679-0.271 0.943-0.016l0.876 0.849 2.328-2.189c0.268-0.251 0.691-0.241 0.943 0.029 0.252 0.268 0.24 0.691-0.028 0.94l-2.792 2.627c-0.128 0.124-0.292 0.185-0.456 0.185zM26 27.327h-18.667c-4.044 0-7.333-3.287-7.333-7.327 0-3.988 3.205-7.243 7.179-7.325 1.452-4.739 5.827-8.001 10.823-8.001 6.249 0 11.332 5.084 11.332 11.333 0 0.121-0.004 0.243-0.011 0.363 1.661 1.109 2.677 2.976 2.677 4.965 0 3.304-2.693 5.992-6 5.992zM7.408 14.017c-3.393 0-6.075 2.685-6.075 5.983 0 3.305 2.692 5.993 6 5.993h18.667c2.573 0 4.667-2.089 4.667-4.66 0-1.676-0.885-3.185-2.367-4.031-0.221-0.127-0.352-0.368-0.333-0.623 0.020-0.305 0.033-0.488 0.033-0.675 0-5.513-4.485-10-9.999-10-4.572 0-8.553 3.096-9.681 7.532-0.077 0.305-0.353 0.52-0.676 0.501-0.073-0.004-0.144-0.012-0.216-0.024-0.007 0.003-0.013 0.003-0.020 0.003z"></path>
</svg>
