<svg version="1.1" xmlns="http://www.w3.org/2000/svg" width="32" height="32" viewBox="0 0 32 32">
<title>Data-Cloud</title>
<path d="M27.333 30.667h-22.667c-2.573 0-4.667-2.093-4.667-4.667v-1.333c0-2.573 2.093-4.667 4.667-4.667h22.667c2.573 0 4.667 2.093 4.667 4.667v1.333c0 2.573-2.093 4.667-4.667 4.667zM4.667 21.333c-1.837 0-3.333 1.496-3.333 3.333v1.333c0 1.837 1.496 3.333 3.333 3.333h22.667c1.837 0 3.333-1.496 3.333-3.333v-1.333c0-1.837-1.496-3.333-3.333-3.333h-22.667zM26.333 27.333c-1.103 0-2-0.897-2-2s0.897-2 2-2 2 0.897 2 2-0.897 2-2 2zM26.333 24.667c-0.367 0-0.667 0.3-0.667 0.667s0.3 0.667 0.667 0.667 0.667-0.3 0.667-0.667-0.3-0.667-0.667-0.667zM1.219 23.315c-0.029 0-0.059-0.003-0.089-0.005-0.364-0.049-0.62-0.385-0.572-0.751l2.26-16.777c0.341-2.536 2.528-4.448 5.087-4.448h16.181c2.565 0 4.752 1.917 5.088 4.459l2.209 16.679c0.048 0.364-0.208 0.7-0.575 0.749-0.364 0.049-0.699-0.209-0.748-0.575l-2.205-16.679c-0.251-1.881-1.868-3.301-3.768-3.301h-16.183c-1.893 0-3.512 1.416-3.765 3.292l-2.26 16.777c-0.045 0.339-0.331 0.58-0.66 0.58zM21.153 17.333h-11.259c-2.117 0-3.905-1.825-3.905-3.987 0-2.163 1.788-3.989 3.905-3.989 0.411 0 0.812 0.067 1.203 0.197 0.831-2.092 2.848-3.495 5.148-3.495 1.581 0 3.059 0.672 4.119 1.859 2.901-0.508 5.445 1.796 5.445 4.665 0 2.619-2.088 4.749-4.656 4.749zM9.895 10.691c-1.395 0-2.572 1.216-2.572 2.656 0 1.439 1.177 2.653 2.572 2.653h11.259c1.801 0 3.323-1.564 3.323-3.417 0-1.844-1.528-3.401-3.339-3.401-0.276 0-0.557 0.039-0.857 0.119-0.257 0.069-0.536-0.025-0.7-0.239-0.813-1.061-2.029-1.669-3.336-1.669-1.951 0-3.633 1.329-4.093 3.232-0.049 0.204-0.192 0.373-0.385 0.456-0.193 0.084-0.415 0.072-0.596-0.036-0.407-0.235-0.836-0.353-1.275-0.353z"></path>
</svg>
