<svg version="1.1" xmlns="http://www.w3.org/2000/svg" width="32" height="32" viewBox="0 0 32 32">
<title>Data-Backup</title>
<path d="M27.333 30.667h-22.667c-2.573 0-4.667-2.093-4.667-4.667v-1.333c0-2.573 2.093-4.667 4.667-4.667h22.667c2.573 0 4.667 2.093 4.667 4.667v1.333c0 2.573-2.093 4.667-4.667 4.667zM4.667 21.333c-1.837 0-3.333 1.496-3.333 3.333v1.333c0 1.837 1.496 3.333 3.333 3.333h22.667c1.837 0 3.333-1.496 3.333-3.333v-1.333c0-1.837-1.496-3.333-3.333-3.333h-22.667zM26.333 27.333c-1.103 0-2-0.897-2-2s0.897-2 2-2 2 0.897 2 2-0.897 2-2 2zM26.333 24.667c-0.367 0-0.667 0.3-0.667 0.667s0.3 0.667 0.667 0.667 0.667-0.3 0.667-0.667-0.3-0.667-0.667-0.667zM1.219 23.315c-0.029 0-0.059-0.003-0.089-0.005-0.364-0.049-0.62-0.385-0.572-0.751l2.26-16.777c0.341-2.536 2.528-4.448 5.087-4.448h16.181c2.565 0 4.752 1.917 5.088 4.459l2.209 16.679c0.048 0.364-0.208 0.7-0.575 0.749-0.369 0.048-0.699-0.209-0.748-0.575l-2.205-16.679c-0.251-1.881-1.868-3.301-3.768-3.301h-16.183c-1.893 0-3.512 1.416-3.765 3.292l-2.26 16.777c-0.045 0.339-0.331 0.58-0.66 0.58zM15.971 17.653c-1.713 0-3.427-0.655-4.727-1.963-1.256-1.261-1.944-2.937-1.94-4.719 0.005-1.781 0.704-3.453 1.967-4.708 0.261-0.261 0.683-0.26 0.943 0.001s0.259 0.684-0.003 0.943c-1.011 1.004-1.568 2.341-1.573 3.767-0.004 1.424 0.547 2.764 1.552 3.773 2.073 2.084 5.456 2.095 7.541 0.023 1.012-1.005 1.569-2.343 1.575-3.767 0.003-1.424-0.547-2.765-1.552-3.775-0.26-0.26-0.259-0.683 0.003-0.943 0.259-0.26 0.683-0.26 0.943 0.001 1.255 1.261 1.943 2.937 1.94 4.719-0.005 1.78-0.704 3.453-1.968 4.708-1.299 1.293-3 1.939-4.7 1.939zM19.068 9.989c-0.017 0-0.036 0-0.055-0.001-0.367-0.029-0.64-0.351-0.611-0.719l0.267-3.323c0.028-0.365 0.349-0.647 0.719-0.611l3.323 0.265c0.367 0.029 0.64 0.351 0.611 0.719s-0.348 0.637-0.719 0.611l-2.659-0.213-0.213 2.659c-0.028 0.349-0.319 0.613-0.663 0.613z"></path>
</svg>
