<svg version="1.1" xmlns="http://www.w3.org/2000/svg" width="32" height="32" viewBox="0 0 32 32">
<path d="M31.333 29.333h-30.667c-0.368 0-0.667-0.3-0.667-0.667v-25.333c0-0.367 0.299-0.667 0.667-0.667h30.667c0.367 0 0.667 0.3 0.667 0.667v25.333c0 0.367-0.3 0.667-0.667 0.667zM1.333 28h29.333v-24h-29.333v24zM30.667 9.333h-29.333c-0.368 0-0.667-0.3-0.667-0.667s0.299-0.667 0.667-0.667h29.333c0.367 0 0.667 0.3 0.667 0.667s-0.3 0.667-0.667 0.667zM8.461 21.585v-1.224c0-0.036 0-0.065 0.019-0.104l1.785-4.088c0.020-0.047 0.057-0.076 0.135-0.076h1.5c0.067 0 0.095 0.033 0.067 0.091l-1.805 4.097v0.023h0.917c0.037 0 0.057-0.023 0.057-0.057v-1.145c0-0.057 0.037-0.093 0.095-0.093h1.337c0.056 0 0.096 0.036 0.096 0.093v1.145c0 0.035 0.009 0.057 0.048 0.057h0.372c0.057 0 0.096 0.035 0.096 0.092v1.189c0 0.057-0.037 0.092-0.096 0.092h-0.363c-0.037 0-0.056 0.023-0.056 0.056v0.751c0 0.060-0.039 0.096-0.096 0.096h-1.337c-0.057 0-0.095-0.036-0.095-0.096v-0.751c0-0.033-0.020-0.056-0.057-0.056h-2.521c-0.060 0.005-0.097-0.035-0.097-0.092zM13.775 19.341c0-1.375 0.048-1.653 0.153-1.969 0.287-0.877 1.003-1.393 2.073-1.393 1.080 0 1.785 0.516 2.083 1.393 0.095 0.311 0.143 0.589 0.143 1.969s-0.048 1.651-0.143 1.969c-0.297 0.877-1.003 1.393-2.083 1.393-1.069 0-1.785-0.516-2.073-1.393-0.105-0.317-0.153-0.595-0.153-1.969zM16 21.385c0.277 0 0.459-0.115 0.535-0.355 0.048-0.152 0.067-0.3 0.067-1.695s-0.019-1.535-0.067-1.695c-0.077-0.24-0.259-0.355-0.535-0.355s-0.448 0.115-0.525 0.355c-0.057 0.152-0.076 0.3-0.076 1.695s0.019 1.535 0.076 1.695c0.077 0.24 0.248 0.355 0.525 0.355zM18.82 21.585v-1.224c0-0.036 0-0.065 0.019-0.104l1.787-4.088c0.021-0.047 0.057-0.076 0.133-0.076h1.5c0.068 0 0.096 0.033 0.068 0.091l-1.805 4.097v0.023h0.917c0.039 0 0.057-0.023 0.057-0.057v-1.145c0-0.057 0.036-0.093 0.093-0.093h1.339c0.057 0 0.096 0.036 0.096 0.093v1.145c0 0.035 0.008 0.057 0.047 0.057h0.372c0.057 0 0.096 0.035 0.096 0.092v1.189c0 0.057-0.037 0.092-0.096 0.092h-0.361c-0.037 0-0.057 0.023-0.057 0.056v0.751c0 0.060-0.037 0.096-0.096 0.096h-1.336c-0.057 0-0.095-0.036-0.095-0.096v-0.751c0-0.033-0.020-0.056-0.057-0.056h-2.523c-0.057 0.005-0.097-0.035-0.097-0.092zM4 6c0 0.368-0.299 0.667-0.667 0.667s-0.667-0.299-0.667-0.667c0-0.368 0.299-0.667 0.667-0.667s0.667 0.299 0.667 0.667zM6.667 6c0 0.368-0.299 0.667-0.667 0.667s-0.667-0.299-0.667-0.667c0-0.368 0.299-0.667 0.667-0.667s0.667 0.299 0.667 0.667zM9.333 6c0 0.368-0.299 0.667-0.667 0.667s-0.667-0.299-0.667-0.667c0-0.368 0.299-0.667 0.667-0.667s0.667 0.299 0.667 0.667z"></path>
</svg>
