<svg version="1.1" xmlns="http://www.w3.org/2000/svg" width="32" height="32" viewBox="0 0 32 32">
<path d="M11.32 31.632h-10.667c-0.368 0-0.667-0.299-0.667-0.667v-10.667c0-0.239 0.127-0.457 0.332-0.577 0.204-0.12 0.459-0.12 0.665-0.003l10.667 6.084c0.207 0.119 0.336 0.34 0.336 0.581v4.584c0 0.365-0.299 0.664-0.667 0.664zM1.32 30.299h9.333v-3.529l-9.333-5.323v8.852zM21.987 31.632h-10.667c-0.368 0-0.667-0.299-0.667-0.667v-10.667c0-0.239 0.127-0.457 0.332-0.577 0.204-0.12 0.459-0.12 0.665-0.003l10.667 6.084c0.207 0.119 0.336 0.34 0.336 0.581v4.584c0 0.365-0.299 0.664-0.667 0.664zM11.987 30.299h9.333v-3.529l-9.333-5.323v8.852zM31.347 31.632c-0.009 0-0.017 0-0.027 0h-9.333c-0.188 0-0.365-0.080-0.492-0.216-0.127-0.139-0.189-0.324-0.172-0.509l2-22.667c0.029-0.343 0.319-0.608 0.664-0.608h5.333c0.345 0 0.633 0.265 0.664 0.608l1.983 22.481c0.029 0.076 0.045 0.156 0.045 0.244 0.001 0.368-0.297 0.667-0.665 0.667zM22.715 30.299h7.877l-1.883-21.333h-4.112l-1.883 21.333zM25.797 6.088c-0.099 0-0.199-0.025-0.297-0.075-1.224-0.64-0.676-2.075-0.313-3.024 0.145-0.379 0.447-1.169 0.347-1.345-0.327-0.171-0.469-0.584-0.299-0.909 0.169-0.328 0.556-0.463 0.884-0.292 1.224 0.64 0.676 2.075 0.313 3.023-0.145 0.38-0.447 1.169-0.345 1.347 0.325 0.171 0.469 0.584 0.299 0.911-0.121 0.229-0.349 0.365-0.588 0.365zM28.62 6.096c-0.107 0-0.217-0.027-0.323-0.081-0.385-0.201-0.628-0.481-0.721-0.831-0.157-0.596 0.191-1.143 0.469-1.581 0.109-0.171 0.291-0.456 0.3-0.56-0.327-0.171-0.473-0.552-0.305-0.877s0.549-0.429 0.876-0.259c0.385 0.201 0.629 0.481 0.721 0.832 0.159 0.596-0.189 1.141-0.468 1.58-0.109 0.171-0.291 0.456-0.3 0.561 0.327 0.171 0.473 0.551 0.305 0.876-0.116 0.22-0.328 0.34-0.555 0.34z"></path>
</svg>
