<svg version="1.1" xmlns="http://www.w3.org/2000/svg" width="32" height="32" viewBox="0 0 32 32">
<title>Time-Backup</title>
<path d="M15.667 31c-8.455 0-15.333-6.879-15.333-15.333s6.879-15.333 15.333-15.333 15.333 6.879 15.333 15.333c0 1.176-0.133 2.349-0.397 3.487-0.084 0.36-0.441 0.584-0.801 0.499-0.359-0.084-0.583-0.441-0.5-0.801 0.243-1.039 0.363-2.112 0.363-3.188 0-7.72-6.28-14-14-14s-14 6.28-14 14 6.28 14 14 14c1.075 0 2.144-0.123 3.183-0.361 0.356-0.084 0.717 0.139 0.801 0.5 0.084 0.36-0.14 0.716-0.5 0.801-1.133 0.261-2.305 0.397-3.481 0.397zM15.667 16.333c-0.171 0-0.341-0.065-0.472-0.195-0.26-0.257-0.26-0.683 0-0.943l8-8c0.259-0.257 0.683-0.257 0.943 0 0.259 0.26 0.259 0.685 0 0.943l-8 8c-0.129 0.129-0.3 0.195-0.471 0.195zM15.667 16.333c-0.171 0-0.341-0.065-0.472-0.195l-4-4c-0.26-0.257-0.26-0.683 0-0.943 0.26-0.257 0.683-0.257 0.943 0l4 4c0.26 0.26 0.26 0.685 0 0.943-0.129 0.129-0.3 0.195-0.471 0.195zM31 31.667h-12c-0.367 0-0.667-0.3-0.667-0.667v-12c0-0.367 0.3-0.667 0.667-0.667h12c0.367 0 0.667 0.3 0.667 0.667v12c0 0.367-0.3 0.667-0.667 0.667zM19.667 30.333h10.667v-10.667h-10.667v10.667zM25.667 23.667h-4c-0.367 0-0.667-0.3-0.667-0.667v-4c0-0.367 0.3-0.667 0.667-0.667h4c0.367 0 0.667 0.3 0.667 0.667v4c0 0.367-0.3 0.667-0.667 0.667zM22.333 22.333h2.667v-2.667h-2.667v2.667zM28.333 31.667h-6.667c-0.367 0-0.667-0.3-0.667-0.667v-4c0-0.367 0.3-0.667 0.667-0.667h6.667c0.367 0 0.667 0.3 0.667 0.667v4c0 0.367-0.3 0.667-0.667 0.667zM22.333 30.333h5.333v-2.667h-5.333v2.667z"></path>
</svg>
