<svg version="1.1" xmlns="http://www.w3.org/2000/svg" width="32" height="32" viewBox="0 0 32 32">
<path d="M20.004 19.66c-0.141 0-0.284-0.045-0.405-0.137l-2.92-2.24-2.815 2.232c-0.288 0.228-0.709 0.18-0.936-0.108-0.229-0.288-0.18-0.707 0.108-0.936l3.221-2.555c0.239-0.191 0.577-0.192 0.821-0.007l3.333 2.555c0.292 0.225 0.347 0.641 0.123 0.936-0.133 0.171-0.332 0.26-0.531 0.26zM16.671 30.327c-0.368 0-0.667-0.299-0.667-0.667v-12c0-0.368 0.299-0.667 0.667-0.667s0.667 0.299 0.667 0.667v12c0 0.368-0.299 0.667-0.667 0.667zM26 24.327h-5.996c-0.368 0-0.667-0.299-0.667-0.667s0.299-0.667 0.667-0.667h5.996c2.573 0 4.665-2.089 4.665-4.66 0-1.676-0.885-3.185-2.367-4.031-0.221-0.127-0.353-0.371-0.333-0.627 0.021-0.281 0.033-0.473 0.033-0.671 0-5.513-4.485-10-9.999-10-4.572 0-8.553 3.096-9.681 7.532-0.077 0.305-0.367 0.516-0.676 0.501-0.073-0.004-0.144-0.012-0.216-0.024-3.392-0.024-6.096 2.679-6.096 5.983s2.692 5.992 6 5.992h6.007c0.368 0 0.667 0.3 0.667 0.667 0 0.368-0.299 0.671-0.667 0.671h-6.004c-4.044 0-7.333-3.287-7.333-7.327 0-3.988 3.205-7.243 7.179-7.325 1.452-4.739 5.827-8.001 10.823-8.001 6.248 0 11.332 5.084 11.332 11.333 0 0.121-0.004 0.243-0.011 0.363 1.66 1.111 2.677 2.976 2.677 4.965-0.001 3.304-2.692 5.992-6 5.992z"></path>
</svg>
