<svg fill="none" xmlns="http://www.w3.org/2000/svg" viewBox="0 0 160 32" width="160" height="32"><rect width="160" height="32" rx="4" fill="#2D2D2D"/><path fill-rule="evenodd" clip-rule="evenodd" d="M27.33 15.06c.3-.5.3-1.14 0-1.65l-3.69-6.38c-.3-.51-.84-.83-1.42-.83h-7.38c-.59 0-1.13.32-1.43.83l-3.03 5.25-2.41 4.18c-.3.51-.3 1.14 0 1.65l3.68 6.39c.3.5.84.82 1.43.82h7.38c.58 0 1.13-.31 1.42-.82l3.04-5.26 2.41-4.18Zm-2.41 4.18-4.17-7.2a1.61 1.61 0 0 0-1.42-.83h-7.38c-.59 0-1.13.31-1.42.82l-.15.25 4.16 7.21c.3.51.84.83 1.43.83h7.37c.6 0 1.14-.32 1.43-.83l.15-.25Z" fill="url(#a)"/><path d="M38.85 21h-3.1v-8.73h3.13c.88 0 1.63.18 2.26.53a3.5 3.5 0 0 1 1.47 1.5c.34.64.51 1.42.51 2.33 0 .9-.17 1.69-.51 2.34a3.54 3.54 0 0 1-1.47 1.5c-.64.36-1.4.53-2.29.53Zm-1.25-1.58h1.17c.55 0 1-.1 1.38-.3.38-.19.66-.49.84-.9.2-.41.3-.94.3-1.6 0-.64-.1-1.16-.3-1.57a1.78 1.78 0 0 0-.83-.9c-.38-.2-.84-.3-1.38-.3H37.6v5.57Zm9.6 1.71a3.5 3.5 0 0 1-1.74-.41 2.8 2.8 0 0 1-1.12-1.17c-.26-.5-.39-1.1-.39-1.8 0-.67.13-1.26.4-1.77.25-.5.62-.9 1.1-1.18a3.22 3.22 0 0 1 1.67-.43c.44 0 .84.07 1.21.2a2.67 2.67 0 0 1 1.64 1.67c.15.41.23.9.23 1.45v.5h-5.53v-1.12h3.82c0-.26-.05-.5-.17-.7a1.33 1.33 0 0 0-1.17-.65c-.27 0-.52.07-.73.2-.2.12-.37.29-.5.5-.11.21-.17.45-.18.7v1.08c0 .32.06.6.18.84.13.23.3.41.52.54a1.72 1.72 0 0 0 1.34.1.98.98 0 0 0 .43-.25c.12-.11.21-.25.27-.42l1.68.11c-.08.4-.26.76-.52 1.06-.26.3-.6.53-1.02.7-.4.17-.88.25-1.42.25Zm3.95 2.32v-9h1.79v1.1h.08c.08-.17.2-.35.34-.53a1.96 1.96 0 0 1 1.52-.66 2.46 2.46 0 0 1 2.29 1.5c.24.5.36 1.13.36 1.88 0 .73-.12 1.34-.35 1.85a2.45 2.45 0 0 1-2.3 1.52 2.1 2.1 0 0 1-.9-.18 1.86 1.86 0 0 1-.6-.44 2.23 2.23 0 0 1-.36-.54h-.06v3.5h-1.81Zm1.77-5.72c0 .39.06.73.16 1.02.11.29.27.51.47.67.2.16.46.24.75.24.3 0 .54-.08.75-.24.2-.17.36-.4.46-.68a3.04 3.04 0 0 0 .01-2.01c-.1-.29-.26-.51-.47-.67-.2-.17-.45-.25-.75-.25s-.55.08-.75.24c-.2.15-.36.38-.46.66-.11.29-.17.63-.17 1.02Zm7.4-5.46V21H58.5v-8.73h1.82Zm4.17 8.86c-.67 0-1.24-.14-1.72-.42a2.89 2.89 0 0 1-1.11-1.19c-.26-.5-.4-1.1-.4-1.77 0-.67.14-1.26.4-1.77.26-.5.63-.9 1.1-1.18a3.33 3.33 0 0 1 1.73-.43c.66 0 1.23.14 1.71.43.48.28.85.67 1.12 1.18.26.5.39 1.1.39 1.77 0 .67-.13 1.26-.4 1.77-.26.5-.63.9-1.11 1.19-.48.28-1.05.42-1.71.42Zm0-1.4c.3 0 .56-.1.76-.26.2-.18.35-.41.46-.71.1-.3.15-.64.15-1.02s-.05-.72-.15-1.02c-.1-.3-.26-.53-.46-.7-.2-.18-.45-.27-.75-.27s-.56.1-.77.26c-.2.18-.36.41-.47.71-.1.3-.15.64-.15 1.02s.05.72.15 1.02c.1.3.26.53.47.7.2.18.46.26.77.26Zm5.07 3.72a3.6 3.6 0 0 1-1.14-.18l.4-1.36c.22.07.41.1.58.1.17.01.32-.03.45-.11a.89.89 0 0 0 .3-.44l.12-.27-2.35-6.74h1.9l1.36 4.81h.07l1.37-4.8h1.92L72 21.7c-.13.35-.3.66-.5.92-.21.26-.47.46-.8.6-.3.15-.7.22-1.14.22Zm11.16-2.32c-.66 0-1.23-.14-1.71-.42a2.89 2.89 0 0 1-1.12-1.19c-.26-.5-.39-1.1-.39-1.77 0-.67.13-1.26.4-1.77.26-.5.63-.9 1.1-1.18a3.33 3.33 0 0 1 1.72-.43c.67 0 1.24.14 1.72.43.48.28.85.67 1.11 1.18.26.5.4 1.1.4 1.77 0 .67-.14 1.26-.4 1.77-.26.5-.63.9-1.11 1.19-.48.28-1.05.42-1.72.42Zm.01-1.4c.3 0 .55-.1.76-.26.2-.18.35-.41.45-.71a3.21 3.21 0 0 0 0-2.04c-.1-.3-.25-.53-.45-.7-.2-.18-.46-.27-.76-.27s-.56.1-.76.26c-.2.18-.36.41-.47.71-.1.3-.15.64-.15 1.02s.05.72.15 1.02c.1.3.26.53.47.7.2.18.46.26.76.26Zm5.97-2.51V21h-1.8v-6.55h1.73v1.16h.07c.15-.38.39-.68.73-.9a2.2 2.2 0 0 1 1.24-.34c.46 0 .85.1 1.19.3.34.2.6.48.79.85.19.37.28.8.28 1.31V21H89.1v-3.84c0-.4-.1-.72-.3-.94a1.1 1.1 0 0 0-.86-.34c-.24 0-.46.05-.65.16-.18.1-.33.25-.43.46-.1.2-.16.43-.16.72ZM94.68 21v-8.73h5.88v1.52h-4.03v2.08h3.73v1.52h-3.73v2.09h4.05V21h-5.9Zm8.94.12c-.42 0-.79-.07-1.11-.21a1.8 1.8 0 0 1-.78-.66 1.96 1.96 0 0 1-.28-1.08c0-.36.07-.67.2-.91.13-.25.31-.45.54-.6.23-.15.5-.27.79-.34.3-.08.6-.13.93-.16l.92-.11c.23-.04.4-.1.5-.17.11-.07.16-.17.16-.31v-.03a.78.78 0 0 0-.25-.62c-.17-.15-.4-.23-.72-.23-.33 0-.58.08-.78.22a1 1 0 0 0-.38.54l-1.68-.14a2.28 2.28 0 0 1 1.47-1.7 4.2 4.2 0 0 1 2.42-.11c.34.08.64.21.9.4a1.92 1.92 0 0 1 .84 1.69V21h-1.72v-.9h-.06a1.85 1.85 0 0 1-1.05.9 2.8 2.8 0 0 1-.86.12Zm.52-1.25a1.42 1.42 0 0 0 1.2-.59c.1-.18.17-.39.17-.62v-.7a.97.97 0 0 1-.24.1 4.24 4.24 0 0 1-.7.15l-.33.05c-.2.03-.4.08-.55.15a.9.9 0 0 0-.38.28.68.68 0 0 0-.13.42c0 .25.1.44.27.57.18.13.41.2.7.2Zm9.78-3.55-1.66.1a.86.86 0 0 0-.18-.38.97.97 0 0 0-.37-.28c-.15-.07-.33-.1-.54-.1-.29 0-.52.06-.72.18-.19.11-.29.27-.29.46 0 .16.07.3.2.4.12.1.33.2.64.26l1.18.24c.64.13 1.11.34 1.42.63.32.29.47.67.47 1.14 0 .43-.13.8-.38 1.13-.25.32-.6.58-1.03.76a3.9 3.9 0 0 1-1.5.27c-.87 0-1.56-.18-2.07-.54a2.11 2.11 0 0 1-.9-1.49l1.78-.09c.06.26.19.47.4.6.2.14.47.2.8.2.3 0 .56-.05.76-.17.2-.13.3-.29.3-.49a.5.5 0 0 0-.21-.4 1.5 1.5 0 0 0-.63-.25l-1.14-.22a2.71 2.71 0 0 1-1.42-.67 1.65 1.65 0 0 1-.47-1.2c0-.42.11-.79.34-1.1.23-.3.55-.53.97-.7.42-.16.9-.24 1.47-.24.82 0 1.47.17 1.95.52.47.35.75.83.83 1.43Zm2.18 7.13a3.6 3.6 0 0 1-1.15-.18l.41-1.36c.22.07.4.1.58.1.17.01.32-.03.45-.11a.88.88 0 0 0 .3-.44l.11-.27-2.34-6.74h1.9l1.36 4.81h.07l1.36-4.8h1.93l-2.55 7.25c-.12.35-.28.66-.5.92-.2.26-.47.46-.78.6-.32.15-.7.22-1.15.22Zm5.67 0v-9h1.79v1.1h.08c.08-.17.2-.35.34-.53a1.96 1.96 0 0 1 1.52-.66 2.46 2.46 0 0 1 2.29 1.5c.24.5.36 1.13.36 1.88 0 .73-.12 1.34-.35 1.85-.24.5-.55.87-.96 1.13-.4.26-.85.39-1.34.39a2.1 2.1 0 0 1-.9-.18 1.85 1.85 0 0 1-.6-.44 2.22 2.22 0 0 1-.36-.54h-.06v3.5h-1.81Zm1.77-5.72c0 .39.06.73.16 1.02.11.29.27.51.47.67.2.16.46.24.75.24.3 0 .55-.08.75-.24.2-.17.36-.4.46-.68a3.04 3.04 0 0 0 .01-2.01c-.1-.29-.26-.51-.47-.67-.2-.17-.45-.25-.75-.25s-.55.08-.75.24c-.2.15-.36.38-.47.66-.1.29-.16.63-.16 1.02Zm7.45 3.39c-.42 0-.8-.07-1.12-.21a1.8 1.8 0 0 1-.78-.66 1.96 1.96 0 0 1-.28-1.08c0-.36.07-.67.2-.91.14-.25.32-.45.55-.6.23-.15.49-.27.78-.34.3-.08.6-.13.93-.16l.92-.11c.24-.04.4-.1.5-.17a.34.34 0 0 0 .17-.31v-.03a.78.78 0 0 0-.26-.62c-.17-.15-.4-.23-.72-.23-.32 0-.58.08-.77.22a1 1 0 0 0-.39.54l-1.68-.14a2.28 2.28 0 0 1 1.47-1.7 4.18 4.18 0 0 1 2.42-.11c.34.08.64.21.9.4a1.93 1.93 0 0 1 .84 1.69V21h-1.72v-.9h-.05a1.85 1.85 0 0 1-1.06.9c-.24.08-.53.12-.85.12Zm.52-1.25c.26 0 .5-.05.7-.16a1.18 1.18 0 0 0 .66-1.05v-.7a.97.97 0 0 1-.24.1 4.24 4.24 0 0 1-.69.15l-.33.05c-.22.03-.4.08-.56.15a.9.9 0 0 0-.37.28.68.68 0 0 0-.13.42c0 .25.09.44.27.57.18.13.4.2.69.2Zm6.15-2.65V21h-1.82v-6.55h1.73v1.16h.08c.14-.38.38-.68.73-.9a2.2 2.2 0 0 1 1.24-.34c.45 0 .85.1 1.19.3.33.2.6.48.78.85.2.37.28.8.28 1.31V21h-1.81v-3.84c0-.4-.1-.72-.3-.94a1.1 1.1 0 0 0-.86-.34c-.25 0-.46.05-.65.16-.19.1-.33.25-.44.46-.1.2-.15.43-.15.72Zm8.39 3.91a3.5 3.5 0 0 1-1.74-.41 2.8 2.8 0 0 1-1.12-1.17c-.26-.5-.39-1.1-.39-1.8 0-.67.13-1.26.4-1.77.26-.5.62-.9 1.1-1.18a3.22 3.22 0 0 1 1.68-.43c.43 0 .83.07 1.2.2a2.67 2.67 0 0 1 1.64 1.67c.16.41.23.9.23 1.45v.5h-5.52v-1.12h3.81c0-.26-.05-.5-.17-.7a1.33 1.33 0 0 0-1.17-.65 1.4 1.4 0 0 0-1.41 1.4v1.08c0 .32.06.6.18.84.13.23.3.41.52.54a1.71 1.71 0 0 0 1.34.1.98.98 0 0 0 .43-.25c.12-.11.21-.25.28-.42l1.67.11c-.08.4-.25.76-.52 1.06-.26.3-.6.53-1.01.7-.42.17-.9.25-1.43.25Zm5.76-8.86V21H150v-8.73h1.81Z" fill="#fff"/><defs><linearGradient id="a" x1="23.04" y1="6.42" x2="12.26" y2="25.1" gradientUnits="userSpaceOnUse"><stop stop-color="#12CD87"/><stop offset="1" stop-color="#12ABCD"/></linearGradient></defs></svg>