<svg fill="none" xmlns="http://www.w3.org/2000/svg" viewBox="0 0 200 40" width="200" height="40"><rect x=".94" y=".94" width="198.13" height="38.13" rx="4.06" fill="#1D1D1D" stroke="url(#a)" stroke-width="1.88"/><path fill-rule="evenodd" clip-rule="evenodd" d="M33.18 18.9a1.9 1.9 0 0 0 0-1.9l-4.23-7.33a1.9 1.9 0 0 0-1.64-.95h-8.47c-.68 0-1.3.36-1.64.95l-3.5 6.03-2.77 4.8a1.9 1.9 0 0 0 0 1.9l4.23 7.34c.34.58.97.94 1.64.94h8.47c.68 0 1.3-.36 1.64-.94l3.49-6.04 2.77-4.8Zm-2.77 4.8-4.78-8.28a1.9 1.9 0 0 0-1.64-.95h-8.47c-.68 0-1.3.36-1.64.95l-.17.29 4.78 8.28c.34.58.97.95 1.64.95h8.47c.68 0 1.3-.37 1.64-.95l.17-.3Z" fill="url(#b)"/><path d="M46.06 26.25H42.2v-10.9h3.9c1.1 0 2.04.2 2.83.65.8.43 1.4 1.05 1.83 1.87.43.8.64 1.78.64 2.91 0 1.14-.21 2.12-.64 2.93a4.43 4.43 0 0 1-1.84 1.88c-.8.44-1.75.66-2.86.66Zm-1.56-1.98h1.47a3.7 3.7 0 0 0 1.72-.36c.47-.24.82-.62 1.05-1.13.24-.52.36-1.18.36-2 0-.8-.12-1.46-.36-1.97a2.31 2.31 0 0 0-1.05-1.13 3.7 3.7 0 0 0-1.72-.36H44.5v6.95Zm12 2.14a4.4 4.4 0 0 1-2.18-.51 3.5 3.5 0 0 1-1.4-1.46 4.82 4.82 0 0 1-.48-2.24c0-.85.16-1.58.49-2.22.32-.64.78-1.13 1.38-1.49a4.1 4.1 0 0 1 2.1-.53c.54 0 1.04.09 1.5.26a3.34 3.34 0 0 1 2.05 2.07c.2.52.3 1.13.3 1.83v.62h-6.92v-1.4h4.78c0-.33-.08-.62-.22-.87a1.53 1.53 0 0 0-.59-.6 1.69 1.69 0 0 0-.87-.21 1.72 1.72 0 0 0-1.53.87c-.15.26-.23.55-.23.88v1.33c0 .41.07.76.22 1.05.16.3.37.53.65.69a2.19 2.19 0 0 0 1.68.13 1.4 1.4 0 0 0 .88-.84l2.1.14c-.11.5-.33.94-.66 1.32a3.3 3.3 0 0 1-1.27.87c-.51.2-1.1.31-1.78.31Zm4.93 2.91V18.07h2.24v1.37h.1a3 3 0 0 1 .43-.67c.2-.23.44-.42.75-.57a3.08 3.08 0 0 1 4.01 1.64c.3.61.45 1.4.45 2.33a5.5 5.5 0 0 1-.44 2.31 3.06 3.06 0 0 1-2.88 1.9c-.44 0-.81-.07-1.12-.22-.3-.14-.56-.32-.75-.54-.2-.23-.35-.45-.45-.68h-.07v4.38h-2.27Zm2.22-7.16c0 .49.07.91.2 1.27.14.36.34.65.6.85.25.2.56.3.92.3.37 0 .69-.1.94-.3.26-.21.45-.5.58-.86.14-.36.2-.79.2-1.26s-.06-.89-.2-1.25a1.86 1.86 0 0 0-.57-.84 1.5 1.5 0 0 0-.95-.3c-.37 0-.68.1-.93.29-.26.2-.45.47-.58.83-.14.36-.2.78-.2 1.27Zm9.25-6.82v10.91h-2.28v-10.9h2.27Zm5.2 11.07a4.2 4.2 0 0 1-2.14-.53 3.6 3.6 0 0 1-1.39-1.48 4.77 4.77 0 0 1-.49-2.2c0-.85.16-1.6.5-2.22.32-.64.78-1.13 1.38-1.49a4.2 4.2 0 0 1 2.15-.53c.83 0 1.54.18 2.14.53.6.36 1.07.85 1.4 1.49.32.63.49 1.37.49 2.21a4.7 4.7 0 0 1-.5 2.21 3.6 3.6 0 0 1-1.39 1.48c-.6.35-1.31.53-2.14.53Zm.02-1.76c.38 0 .69-.1.94-.32.25-.21.44-.5.57-.88.13-.37.2-.8.2-1.27 0-.48-.07-.9-.2-1.28a1.98 1.98 0 0 0-.57-.88 1.4 1.4 0 0 0-.94-.33c-.38 0-.7.11-.96.33a2 2 0 0 0-.58.88c-.13.37-.2.8-.2 1.28 0 .47.07.9.2 1.27a2 2 0 0 0 .58.88c.26.22.58.32.96.32Zm6.33 4.67a4.5 4.5 0 0 1-1.43-.24l.51-1.69c.27.08.5.13.72.13.22.01.4-.04.56-.15.16-.1.29-.28.39-.54l.13-.35-2.93-8.41h2.38l1.7 6h.08l1.71-6h2.4l-3.17 9.06a3.8 3.8 0 0 1-.63 1.15c-.26.33-.59.59-.98.77-.4.18-.88.27-1.44.27Zm13.95-2.91a4.2 4.2 0 0 1-2.14-.53 3.6 3.6 0 0 1-1.4-1.48 4.77 4.77 0 0 1-.48-2.2c0-.85.16-1.6.49-2.22.32-.64.79-1.13 1.39-1.49a4.2 4.2 0 0 1 2.14-.53 3.73 3.73 0 0 1 3.55 2.02c.32.63.48 1.37.48 2.21a4.7 4.7 0 0 1-.49 2.21 3.6 3.6 0 0 1-1.4 1.48c-.6.35-1.3.53-2.14.53Zm.02-1.76c.37 0 .69-.1.94-.32.25-.21.44-.5.57-.88.13-.37.2-.8.2-1.27 0-.48-.07-.9-.2-1.28a1.98 1.98 0 0 0-.57-.88 1.4 1.4 0 0 0-.94-.33c-.38 0-.7.11-.96.33a2 2 0 0 0-.58.88c-.13.37-.2.8-.2 1.28 0 .47.07.9.2 1.27a2 2 0 0 0 .58.88c.26.22.58.32.96.32Zm7.46-3.13v4.73h-2.27v-8.18h2.16v1.44h.1c.18-.47.48-.85.9-1.13a2.8 2.8 0 0 1 1.56-.42c.56 0 1.06.13 1.48.37.42.25.75.6.99 1.07.23.46.35 1 .35 1.64v5.21h-2.27v-4.8c0-.5-.12-.9-.38-1.18a1.38 1.38 0 0 0-1.07-.42c-.3 0-.58.06-.81.2-.23.13-.42.32-.55.57-.12.25-.19.55-.2.9Zm9.97 4.73v-10.9h7.35v1.9h-5.04v2.6h4.67v1.9h-4.67v2.6h5.06v1.9h-7.37Zm11.18.15c-.52 0-.99-.09-1.4-.27-.4-.18-.73-.45-.97-.81a2.44 2.44 0 0 1-.35-1.36c0-.45.08-.83.25-1.14.17-.3.4-.56.68-.75.3-.18.62-.33.98-.42.37-.1.76-.17 1.16-.2l1.16-.14c.29-.05.5-.12.63-.2.13-.1.2-.23.2-.4v-.03c0-.34-.11-.6-.32-.78a1.3 1.3 0 0 0-.9-.28c-.4 0-.73.09-.97.27-.25.18-.4.4-.48.67l-2.1-.17a2.85 2.85 0 0 1 1.84-2.13 5.23 5.23 0 0 1 3.03-.14c.42.1.79.27 1.11.5a2.41 2.41 0 0 1 1.05 2.11v5.52h-2.15v-1.13h-.06a2.3 2.3 0 0 1-1.32 1.12c-.31.11-.67.16-1.07.16Zm.65-1.56c.33 0 .63-.07.88-.2a1.43 1.43 0 0 0 .82-1.31v-.87c-.07.04-.17.09-.3.13a5.27 5.27 0 0 1-.86.18l-.41.05c-.27.04-.5.1-.7.2-.2.08-.36.2-.47.34a.84.84 0 0 0-.16.53c0 .3.11.55.33.7.23.17.52.25.87.25Zm12.22-4.44-2.07.13a1.08 1.08 0 0 0-.23-.48 1.21 1.21 0 0 0-.47-.35 1.57 1.57 0 0 0-.67-.13c-.36 0-.65.07-.9.22-.23.15-.35.34-.35.59 0 .2.07.36.23.5.16.13.42.24.8.32l1.48.3c.8.16 1.4.42 1.78.79.4.36.59.83.59 1.42 0 .54-.16 1.01-.47 1.42-.32.4-.75.72-1.3.94a4.9 4.9 0 0 1-1.87.34 4.43 4.43 0 0 1-2.6-.68 2.64 2.64 0 0 1-1.12-1.85l2.24-.12c.06.33.23.58.49.76.25.17.59.25 1 .25.39 0 .7-.07.95-.22.25-.16.37-.36.37-.6a.62.62 0 0 0-.26-.51 1.87 1.87 0 0 0-.79-.31l-1.41-.28a3.4 3.4 0 0 1-1.79-.83 2.1 2.1 0 0 1-.58-1.51c0-.53.14-.98.43-1.36a2.8 2.8 0 0 1 1.2-.88c.53-.2 1.14-.3 1.84-.3 1.03 0 1.85.21 2.44.65.6.43.94 1.03 1.04 1.78Zm2.72 8.92a4.49 4.49 0 0 1-1.43-.24l.51-1.69c.27.08.5.13.72.13.22.01.4-.04.56-.15.16-.1.3-.28.4-.54l.12-.35-2.93-8.41h2.39l1.69 6h.08l1.71-6h2.4l-3.17 9.06c-.16.44-.36.83-.63 1.15-.26.33-.58.59-.98.77-.4.18-.88.27-1.44.27Zm7.08 0V18.07h2.25v1.37h.1a3 3 0 0 1 .43-.67c.19-.23.44-.42.74-.57a3.08 3.08 0 0 1 4.01 1.64c.3.61.46 1.4.46 2.33a5.5 5.5 0 0 1-.44 2.31 3.06 3.06 0 0 1-2.88 1.9c-.44 0-.82-.07-1.13-.22-.3-.14-.55-.32-.75-.54a2.8 2.8 0 0 1-.44-.68h-.07v4.38h-2.27Zm2.23-7.16c0 .49.07.91.2 1.27.14.36.33.65.59.85.25.2.56.3.93.3s.68-.1.94-.3c.25-.21.45-.5.58-.86.13-.36.2-.79.2-1.26s-.07-.89-.2-1.25a1.86 1.86 0 0 0-.58-.84c-.25-.2-.57-.3-.94-.3s-.68.1-.94.29c-.25.2-.44.47-.58.83-.13.36-.2.78-.2 1.27Zm9.3 4.24a3.5 3.5 0 0 1-1.4-.27c-.4-.18-.72-.45-.96-.81a2.44 2.44 0 0 1-.35-1.36c0-.45.08-.83.25-1.14.16-.3.4-.56.68-.75.29-.18.61-.33.98-.42.37-.1.75-.17 1.16-.2l1.15-.14c.3-.05.5-.12.63-.2.14-.1.2-.23.2-.4v-.03c0-.34-.1-.6-.32-.78-.2-.19-.5-.28-.9-.28s-.73.09-.97.27c-.24.18-.4.4-.48.67l-2.1-.17a2.85 2.85 0 0 1 1.84-2.13 5.23 5.23 0 0 1 3.03-.14c.42.1.8.27 1.12.5a2.41 2.41 0 0 1 1.05 2.11v5.52h-2.15v-1.13h-.06a2.32 2.32 0 0 1-1.33 1.12c-.3.11-.66.16-1.07.16Zm.65-1.56c.34 0 .63-.07.89-.2a1.47 1.47 0 0 0 .82-1.31v-.87a1.2 1.2 0 0 1-.3.13 5.16 5.16 0 0 1-.86.18l-.42.05c-.27.04-.5.1-.7.2-.2.08-.35.2-.46.34a.84.84 0 0 0-.17.53c0 .3.12.55.34.7.23.17.51.25.86.25Zm7.69-3.32v4.73h-2.27v-8.18h2.16v1.44h.1c.18-.47.48-.85.91-1.13.43-.28.94-.42 1.55-.42a3 3 0 0 1 1.49.37c.42.25.75.6.98 1.07.24.46.35 1 .35 1.64v5.21h-2.27v-4.8c0-.5-.12-.9-.38-1.18a1.38 1.38 0 0 0-1.07-.42 1.49 1.49 0 0 0-1.35.77 2 2 0 0 0-.2.9Zm10.49 4.89c-.84 0-1.56-.17-2.17-.51a3.5 3.5 0 0 1-1.4-1.46 4.82 4.82 0 0 1-.49-2.24c0-.85.16-1.58.5-2.22.32-.64.78-1.13 1.37-1.49a4.1 4.1 0 0 1 2.1-.53c.54 0 1.04.09 1.5.26a3.35 3.35 0 0 1 2.05 2.07c.2.52.3 1.13.3 1.83v.62h-6.91v-1.4h4.77c0-.33-.07-.62-.21-.87a1.53 1.53 0 0 0-.6-.6 1.69 1.69 0 0 0-.86-.21 1.75 1.75 0 0 0-1.54.87 1.8 1.8 0 0 0-.23.88v1.33c0 .41.08.76.23 1.05.15.3.37.53.64.69a2.17 2.17 0 0 0 1.68.13 1.38 1.38 0 0 0 .88-.84l2.1.14c-.1.5-.33.94-.66 1.32-.32.37-.75.66-1.27.87-.51.2-1.1.31-1.78.31Zm7.21-11.07v10.91H185v-10.9h2.27Z" fill="#fff"/><defs><linearGradient id="a" x1="200" y1="0" x2="0" y2="40" gradientUnits="userSpaceOnUse"><stop stop-color="#08C98E"/><stop offset="1" stop-color="#17CEE8"/></linearGradient><linearGradient id="b" x1="28.25" y1="8.98" x2="15.87" y2="30.43" gradientUnits="userSpaceOnUse"><stop stop-color="#12CD87"/><stop offset="1" stop-color="#12ABCD"/></linearGradient></defs></svg>