<svg fill="none" xmlns="http://www.w3.org/2000/svg" viewBox="0 0 245 245" width="245" height="245"><g clip-path="url(#a)"><path fill-rule="evenodd" clip-rule="evenodd" d="M242.3 110.38a15 15 0 0 0 0-15L194.2 12.1a15 15 0 0 0-12.99-7.5H85.07a15 15 0 0 0-13 7.5l-31 53.7-.01.01-38.6 66.85a15 15 0 0 0 0 15l48.08 83.28a15 15 0 0 0 12.99 7.5h96.15a15 15 0 0 0 13-7.5l31-53.71h.01l38.6-66.86Zm-38.62 66.86 3.26-5.66a15 15 0 0 0 0-15l-48.07-83.27a15 15 0 0 0-13-7.5H41.08l-3.26 5.66a15 15 0 0 0 0 15l48.07 83.27a15 15 0 0 0 13 7.5h104.8Z" fill="url(#b)"/></g><defs><linearGradient id="b" x1="188.72" y1="6.61" x2="56.03" y2="236.44" gradientUnits="userSpaceOnUse"><stop stop-color="#12CD87"/><stop offset="1" stop-color="#12ABCD"/></linearGradient><clipPath id="a"><path fill="#fff" d="M0 0h245v245H0z"/></clipPath></defs></svg>