<svg width="1073" height="175" viewBox="0 0 1073 175" fill="none" xmlns="http://www.w3.org/2000/svg">
<path d="M289.109 140C274.976 140 263.846 136.148 255.72 128.444C247.593 120.741 243.353 109.541 243 94.8444V88.6222C243.471 74.637 247.77 63.7333 255.896 55.9111C264.141 47.9704 275.152 44 288.932 44C298.943 44 307.364 46.0741 314.195 50.2222C321.143 54.2519 326.325 59.8222 329.741 66.9333C333.274 74.0444 335.041 82.2222 335.041 91.4667V95.7333C335.041 96.9185 334.629 97.9852 333.804 98.9333C332.98 99.763 331.92 100.178 330.624 100.178H274.092V101.422C274.328 106.993 275.682 111.496 278.156 114.933C280.629 118.37 284.221 120.089 288.932 120.089C291.876 120.089 294.291 119.496 296.175 118.311C298.06 117.007 299.767 115.467 301.298 113.689C302.358 112.385 303.183 111.615 303.772 111.378C304.478 111.022 305.538 110.844 306.952 110.844H328.858C329.918 110.844 330.801 111.2 331.508 111.911C332.332 112.504 332.744 113.333 332.744 114.4C332.744 117.481 330.978 121.037 327.444 125.067C324.029 129.096 319.023 132.593 312.428 135.556C305.833 138.519 298.06 140 289.109 140ZM303.948 82.5778V82.2222C303.948 76.4148 302.594 71.8519 299.885 68.5333C297.294 65.0963 293.643 63.3778 288.932 63.3778C284.339 63.3778 280.688 65.0963 277.979 68.5333C275.388 71.8519 274.092 76.4148 274.092 82.2222V82.5778H303.948Z" fill="#343434"/>
<path d="M375.629 140C369.387 140 363.675 138.815 358.493 136.444C353.428 133.956 349.424 130.637 346.48 126.489C343.653 122.222 342.24 117.541 342.24 112.444C342.24 104.267 345.537 97.6889 352.133 92.7111C358.846 87.7333 368.032 84.2963 379.692 82.4L401.775 79.0222V76.5333C401.775 72.0296 400.833 68.7111 398.948 66.5778C397.064 64.4444 393.884 63.3778 389.408 63.3778C386.7 63.3778 384.462 63.8519 382.695 64.8C380.929 65.7481 379.103 67.0519 377.219 68.7111C375.57 70.1333 374.333 71.0815 373.509 71.5556C373.156 72.5037 372.508 72.9778 371.566 72.9778H352.31C351.132 72.9778 350.131 72.6222 349.306 71.9111C348.6 71.0815 348.305 70.1333 348.423 69.0667C348.541 65.8667 350.072 62.3111 353.016 58.4C356.078 54.4889 360.671 51.1111 366.796 48.2667C373.038 45.4222 380.693 44 389.762 44C404.248 44 414.966 47.2593 421.914 53.7778C428.863 60.1778 432.337 68.8296 432.337 79.7333V133.778C432.337 134.963 431.925 136.03 431.101 136.978C430.276 137.807 429.216 138.222 427.921 138.222H407.428C406.25 138.222 405.19 137.807 404.248 136.978C403.424 136.03 403.011 134.963 403.011 133.778V127.556C400.42 131.23 396.769 134.252 392.058 136.622C387.465 138.874 381.989 140 375.629 140ZM383.932 119.733C389.35 119.733 393.707 117.956 397.005 114.4C400.42 110.844 402.128 105.63 402.128 98.7556V96.2667L387.112 98.9333C376.512 100.83 371.212 104.563 371.212 110.133C371.212 113.096 372.449 115.467 374.922 117.244C377.395 118.904 380.399 119.733 383.932 119.733Z" fill="#343434"/>
<path d="M486.545 140C477.005 140 468.996 138.637 462.519 135.911C456.159 133.185 451.448 129.926 448.386 126.133C445.324 122.341 443.793 118.963 443.793 116C443.793 114.815 444.205 113.867 445.029 113.156C445.972 112.326 446.973 111.911 448.033 111.911H468.172C468.879 111.911 469.526 112.207 470.115 112.8C471.529 113.748 472.589 114.519 473.295 115.111C475.886 117.007 478.124 118.43 480.008 119.378C482.011 120.207 484.425 120.622 487.252 120.622C490.667 120.622 493.435 119.97 495.555 118.667C497.792 117.244 498.911 115.289 498.911 112.8C498.911 110.785 498.322 109.185 497.145 108C496.085 106.815 493.965 105.689 490.785 104.622C487.605 103.437 482.776 102.193 476.298 100.889C466.523 98.8741 458.986 95.6148 453.686 91.1111C448.504 86.4889 445.913 80.3259 445.913 72.6222C445.913 67.763 447.444 63.1407 450.506 58.7556C453.568 54.3704 458.102 50.8148 464.109 48.0889C470.233 45.363 477.476 44 485.838 44C494.2 44 501.502 45.3037 507.744 47.9111C513.986 50.5185 518.697 53.7185 521.877 57.5111C525.175 61.1852 526.824 64.563 526.824 67.6445C526.824 68.7111 526.412 69.6593 525.587 70.4889C524.881 71.3185 523.997 71.7333 522.937 71.7333H504.564C503.622 71.7333 502.739 71.437 501.914 70.8445C500.383 70.0148 499.029 69.1259 497.851 68.1778C495.849 66.637 493.965 65.4519 492.198 64.6222C490.431 63.7926 488.253 63.3778 485.662 63.3778C482.599 63.3778 480.126 64.0889 478.242 65.5111C476.475 66.9333 475.592 68.7704 475.592 71.0222C475.592 72.8 476.063 74.2815 477.005 75.4667C478.065 76.6519 480.185 77.837 483.365 79.0222C486.663 80.0889 491.491 81.2148 497.851 82.4C509.275 84.4148 517.578 87.9704 522.761 93.0667C528.06 98.163 530.71 104.148 530.71 111.022C530.71 119.793 526.824 126.844 519.051 132.178C511.278 137.393 500.442 140 486.545 140Z" fill="#343434"/>
<path d="M556.194 172C555.134 172 554.251 171.644 553.544 170.933C552.837 170.222 552.484 169.333 552.484 168.267C552.484 167.437 552.661 166.667 553.014 165.956L566.794 132.533L532.874 51.8222C532.521 50.8741 532.344 50.163 532.344 49.6889C532.58 48.6222 533.051 47.7333 533.758 47.0222C534.464 46.1926 535.348 45.7778 536.408 45.7778H556.547C559.02 45.7778 560.728 47.0222 561.67 49.5111L581.81 101.244L602.479 49.5111C603.657 47.0222 605.424 45.7778 607.779 45.7778H627.565C628.625 45.7778 629.508 46.1926 630.215 47.0222C631.04 47.7333 631.452 48.563 631.452 49.5111C631.452 49.9852 631.275 50.7556 630.922 51.8222L580.926 168.267C579.984 170.756 578.218 172 575.627 172H556.194Z" fill="#343434"/>
<path d="M646.588 172C645.41 172 644.409 171.585 643.585 170.756C642.76 170.044 642.348 169.037 642.348 167.733V50.0444C642.348 48.7407 642.76 47.7333 643.585 47.0222C644.409 46.1926 645.41 45.7778 646.588 45.7778H660.544C661.84 45.7778 662.841 46.1926 663.548 47.0222C664.372 47.7333 664.784 48.7407 664.784 50.0444V57.1556C671.38 48.3852 680.802 44 693.05 44C704.945 44 714.073 47.7926 720.433 55.3778C726.793 62.8444 730.208 72.9778 730.679 85.7778C730.797 87.2 730.856 89.2741 730.856 92C730.856 94.8444 730.797 96.9778 730.679 98.4C730.208 110.844 726.793 120.919 720.433 128.622C714.073 136.207 704.945 140 693.05 140C681.155 140 672.086 135.793 665.844 127.378V167.733C665.844 169.037 665.432 170.044 664.608 170.756C663.901 171.585 662.9 172 661.604 172H646.588ZM686.514 120.978C699.233 120.978 706.005 113.096 706.83 97.3333C706.948 96.1482 707.006 94.3704 707.006 92C707.006 89.6296 706.948 87.8519 706.83 86.6667C706.005 70.9037 699.233 63.0222 686.514 63.0222C679.683 63.0222 674.618 65.2148 671.321 69.6C668.023 73.9852 666.198 79.3778 665.844 85.7778L665.668 92.5333L665.844 99.4667C666.08 105.393 667.905 110.489 671.321 114.756C674.854 118.904 679.918 120.978 686.514 120.978Z" fill="#343434"/>
<path d="M773.83 140C767.824 140 762.288 138.815 757.224 136.444C752.277 133.956 748.332 130.637 745.388 126.489C742.561 122.341 741.148 117.778 741.148 112.8C741.148 104.741 744.386 98.2222 750.864 93.2445C757.342 88.2667 766.234 84.8889 777.54 83.1111L801.743 79.5556V75.8222C801.743 70.6074 800.447 66.6963 797.856 64.0889C795.265 61.4815 791.084 60.1778 785.313 60.1778C781.427 60.1778 778.247 60.9481 775.773 62.4889C773.418 63.9111 771.534 65.3333 770.12 66.7556C768.707 68.2963 767.765 69.3037 767.294 69.7778C766.823 71.2 765.939 71.9111 764.644 71.9111H751.041C749.981 71.9111 749.039 71.5556 748.214 70.8445C747.508 70.1333 747.154 69.1852 747.154 68C747.272 65.037 748.685 61.6593 751.394 57.8667C754.221 54.0741 758.519 50.8148 764.29 48.0889C770.061 45.363 777.128 44 785.49 44C799.387 44 809.516 47.1407 815.876 53.4222C822.235 59.7037 825.415 67.9407 825.415 78.1333V133.956C825.415 135.141 825.003 136.148 824.179 136.978C823.472 137.807 822.471 138.222 821.175 138.222H806.866C805.688 138.222 804.687 137.807 803.863 136.978C803.038 136.148 802.626 135.141 802.626 133.956V127.022C800.035 130.815 796.325 133.956 791.496 136.444C786.785 138.815 780.897 140 773.83 140ZM779.837 123.111C786.314 123.111 791.614 120.978 795.736 116.711C799.858 112.444 801.919 106.222 801.919 98.0445V94.3111L784.253 97.1556C777.422 98.2222 772.24 99.9407 768.707 102.311C765.291 104.681 763.584 107.585 763.584 111.022C763.584 114.815 765.174 117.778 768.354 119.911C771.533 122.044 775.361 123.111 779.837 123.111Z" fill="#343434"/>
<path d="M848.786 138.222C847.608 138.222 846.607 137.807 845.783 136.978C844.958 136.148 844.546 135.141 844.546 133.956V50.0444C844.546 48.8593 844.958 47.8519 845.783 47.0222C846.607 46.1926 847.608 45.7778 848.786 45.7778H863.272C864.45 45.7778 865.451 46.1926 866.275 47.0222C867.1 47.8519 867.512 48.8593 867.512 50.0444V57.3333C874.461 48.4444 884.295 44 897.015 44C907.85 44 916.447 47.6148 922.807 54.8444C929.167 61.9556 932.347 71.6741 932.347 84V133.956C932.347 135.141 931.935 136.148 931.11 136.978C930.404 137.807 929.402 138.222 928.107 138.222H912.561C911.383 138.222 910.382 137.807 909.557 136.978C908.733 136.148 908.321 135.141 908.321 133.956V85.0667C908.321 78.0741 906.613 72.6815 903.198 68.8889C899.9 64.9778 895.071 63.0222 888.711 63.0222C882.469 63.0222 877.523 64.9778 873.872 68.8889C870.339 72.8 868.572 78.1926 868.572 85.0667V133.956C868.572 135.141 868.16 136.148 867.335 136.978C866.629 137.807 865.628 138.222 864.332 138.222H848.786Z" fill="#343434"/>
<path d="M990.826 140C977.753 140 967.33 136.207 959.557 128.622C951.902 120.919 947.838 110.133 947.367 96.2667L947.191 91.8222L947.367 87.3778C947.956 73.8667 952.078 63.2593 959.734 55.5556C967.507 47.8519 977.871 44 990.826 44C1004.72 44 1015.44 48.2667 1022.98 56.8C1030.63 65.3333 1034.46 76.7111 1034.46 90.9333V94.6667C1034.46 95.8519 1034.05 96.8593 1033.22 97.6889C1032.4 98.5185 1031.34 98.9333 1030.04 98.9333H971.393V100.356C971.629 106.874 973.395 112.385 976.693 116.889C980.109 121.274 984.761 123.467 990.649 123.467C997.598 123.467 1003.19 120.741 1007.43 115.289C1008.49 113.985 1009.32 113.156 1009.91 112.8C1010.61 112.444 1011.61 112.267 1012.91 112.267H1028.1C1029.16 112.267 1030.04 112.622 1030.75 113.333C1031.58 113.926 1031.99 114.696 1031.99 115.644C1031.99 118.489 1030.28 121.867 1026.86 125.778C1023.57 129.57 1018.8 132.889 1012.56 135.733C1006.31 138.578 999.07 140 990.826 140ZM1010.44 84V83.4667C1010.44 76.4741 1008.67 70.8444 1005.14 66.5778C1001.72 62.3111 996.95 60.1778 990.826 60.1778C984.702 60.1778 979.932 62.3111 976.516 66.5778C973.101 70.8444 971.393 76.4741 971.393 83.4667V84H1010.44Z" fill="#343434"/>
<path d="M1054.1 138.222C1052.92 138.222 1051.92 137.807 1051.09 136.978C1050.27 136.148 1049.86 135.141 1049.86 133.956V16.2667C1049.86 14.963 1050.27 13.9556 1051.09 13.2445C1051.92 12.4148 1052.92 12 1054.1 12H1068.76C1070.06 12 1071.06 12.4148 1071.76 13.2445C1072.59 13.9556 1073 14.963 1073 16.2667V133.956C1073 135.141 1072.59 136.148 1071.76 136.978C1071.06 137.807 1070.06 138.222 1068.76 138.222H1054.1Z" fill="#343434"/>
<path fill-rule="evenodd" clip-rule="evenodd" d="M178.496 81.1659C181.176 76.5248 181.176 70.8069 178.496 66.1659L144.944 8.05073C142.264 3.40971 137.312 0.550727 131.953 0.550727L64.8477 0.550727C59.4887 0.550727 54.5368 3.40971 51.8573 8.05073L29.8958 46.0891V46.0891C29.8919 46.0891 29.8882 46.0913 29.8862 46.0947L2.27732 93.9147C-0.402176 98.5557 -0.40217 104.274 2.27732 108.915L35.8301 167.03C38.5096 171.671 43.4615 174.53 48.8205 174.53L115.926 174.53C121.285 174.53 126.237 171.671 128.916 167.03L150.878 128.991V128.991C150.882 128.991 150.886 128.989 150.888 128.986L178.496 81.1659ZM150.878 128.991L152.198 126.704C154.878 122.063 154.878 116.345 152.198 111.704L118.646 53.5891C115.966 48.9481 111.014 46.0891 105.655 46.0891L29.8958 46.0891L28.5753 48.3763C25.8958 53.0173 25.8958 58.7353 28.5753 63.3763L62.1281 121.491C64.8076 126.132 69.7595 128.991 75.1185 128.991L150.878 128.991Z" fill="url(#paint0_linear_0_1)"/>
<defs>
<linearGradient id="paint0_linear_0_1" x1="139.451" y1="2.55896" x2="41.3229" y2="172.522" gradientUnits="userSpaceOnUse">
<stop stop-color="#12CD87"/>
<stop offset="1" stop-color="#12ABCD"/>
</linearGradient>
</defs>
</svg>
