<svg width="200" height="200" viewBox="0 0 200 200" fill="none" xmlns="http://www.w3.org/2000/svg">
<g clip-path="url(#clip0_436_32)">
<path d="M43.7768 106.353C44.0003 110.957 48.6044 108.811 50.6605 107.381C52.6274 105.995 53.2085 107.157 53.3871 104.475C53.5213 102.687 53.6999 100.944 53.6106 99.1563C50.6157 98.888 47.3973 99.6033 44.9386 101.391C43.6427 102.285 41.3182 105.235 43.7764 106.353H43.7768ZM135.545 162.942C139.076 165.133 145.558 171.748 140.238 174.967C135.142 179.616 132.282 169.826 127.812 168.485C129.734 165.848 132.147 163.434 135.545 162.942ZM72.3397 170.407C68.1825 171.033 65.8581 174.788 62.3718 176.71C59.1085 178.632 57.857 176.084 57.5886 175.548C57.0973 175.324 57.1417 175.771 56.3371 174.967C53.2978 170.184 59.4662 166.697 62.6846 164.328C67.1545 163.434 69.9708 167.323 72.3397 170.407V170.407ZM155.168 105.772C154.944 110.376 150.34 108.23 148.284 106.8C146.317 105.414 145.736 106.576 145.558 103.894C145.423 102.106 145.244 100.363 145.334 98.5752C148.329 98.3068 151.547 99.0221 154.006 100.81C155.258 101.704 157.627 104.654 155.168 105.772" fill="#F6D2A2"/>
<path d="M142.965 49.6293C158.922 43.9971 146.451 22.1394 132.549 31.7941C123.431 23.9716 110.871 22.541 97.6838 22.541C84.7663 23.57 72.4735 25.9389 63.8913 33.4481C50.0338 24.5078 37.25 45.9635 53.5205 51.3727C48.9613 69.0733 54.146 87.132 53.4307 105.146C52.7603 121.327 48.5139 143.006 57.4986 157.534C65.1424 169.96 81.5915 174.386 95.1359 174.878C112.434 175.503 133.398 171.257 141.802 154.494C149.848 138.537 147.613 118.645 146.585 101.436C145.557 84.0478 147.479 66.3916 142.964 49.6288L142.965 49.6293Z" fill="#69D7E2"/>
<path d="M156.373 103.046C155.926 102.107 155.077 101.034 154.273 100.453C152.217 98.978 149.579 98.1734 146.852 98.0841C146.763 95.3127 146.674 92.2729 146.674 88.429V84.9423C146.629 73.9463 146.495 69.1188 145.869 63.0841C145.377 58.3463 144.617 53.9657 143.545 49.8534C147.166 48.4677 149.535 46.1881 150.473 43.2376C151.367 40.5111 150.92 37.4269 149.401 34.7003C147.836 32.0182 145.333 30.0065 142.427 29.2023C139.298 28.3529 135.901 28.9789 132.638 31.1687C129.733 28.7105 126.38 26.833 122.625 25.4024C115.965 22.9446 108.232 22.0059 97.7278 22.0059V22.4528L97.683 22.0059C86.4635 22.8998 78.1493 24.6431 71.2656 27.9957C68.4941 29.3365 66.0359 30.9457 63.8905 32.8232C60.5824 30.7671 57.1405 30.2753 53.967 31.2589C51.017 32.1528 48.4691 34.2538 46.9492 36.9804C45.4293 39.7069 45.0716 42.836 46.0997 45.5181C47.1278 48.1998 49.4967 50.3008 53.0283 51.5972C51.9109 56.1116 51.3298 60.8947 51.2405 66.1692C51.1507 71.3095 51.3742 75.4222 52.1788 84.7193C52.7599 91.6478 52.9834 94.8213 53.0731 98.6657C50.0334 98.5315 46.994 99.3361 44.714 100.99C43.9094 101.571 43.0155 102.599 42.6134 103.583C42.0323 104.835 42.2558 105.952 43.418 106.622C43.5966 108.768 44.8037 109.751 46.6364 109.572C47.9772 109.438 49.5864 108.723 50.9721 107.74C51.2649 107.528 51.5796 107.348 51.9109 107.203C52.0451 107.159 52.1344 107.114 52.2685 107.069C52.2685 107.069 52.5364 106.98 52.6262 106.935C52.7599 106.89 52.8941 106.845 52.9834 106.756C52.8941 108.857 52.7155 111.047 52.313 116.054C51.866 121.686 51.6426 124.77 51.5533 128.212C51.1507 140.996 52.6706 150.293 57.2298 157.669C58.6604 159.993 60.4038 162.05 62.4599 163.927C62.0574 164.195 60.3589 165.447 59.8227 165.849C57.9451 167.28 56.6492 168.486 55.889 169.827C54.9058 171.57 54.9058 173.314 56.0232 175.146L56.068 175.191L56.1129 175.236C56.6043 175.728 56.8726 175.862 57.2303 175.862H57.3636C57.4084 175.952 57.4533 175.996 57.4982 176.085C57.6319 176.309 57.7661 176.487 57.9002 176.666C59.0176 177.963 60.5819 178.276 62.6829 177.024C63.8003 176.443 64.6049 175.772 66.3034 174.342L66.3931 174.252C69.1197 171.928 70.4605 171.079 72.4722 170.766L73.1875 170.632C73.4554 170.766 73.7238 170.856 74.0365 170.989C80.384 173.537 87.7591 174.923 95.2243 175.191C104.879 175.549 114.177 174.342 122.044 171.481C124.145 170.721 126.112 169.827 127.989 168.844C129.151 169.291 130.134 170.23 132.012 172.42C132.101 172.51 132.101 172.51 132.146 172.599C132.236 172.688 132.236 172.733 132.28 172.778C132.369 172.912 132.504 173.001 132.593 173.135C134.068 174.878 135.052 175.728 136.169 176.219C137.644 176.845 139.074 176.532 140.549 175.191C143.142 173.582 143.321 171.079 141.622 168.218C140.415 166.207 138.315 164.106 136.348 162.765C138.672 160.485 140.684 157.759 142.248 154.674C146.539 146.092 148.193 136.079 148.104 123.206C148.059 118.646 147.88 114.668 147.389 107.069V106.846C147.612 106.935 147.836 107.069 148.059 107.248C149.445 108.187 151.054 108.946 152.395 109.081C154.228 109.26 155.435 108.276 155.613 106.131C156.731 105.415 156.954 104.298 156.373 103.046L156.373 103.046ZM142.16 30.1406C144.842 30.8559 147.166 32.7335 148.596 35.2365C150.027 37.7396 150.429 40.5559 149.624 43.059C148.775 45.6963 146.629 47.7973 143.277 49.0488C142.608 46.6556 141.818 44.2983 140.908 41.9861C142.204 40.8687 142.83 39.483 141.802 37.5166C140.774 35.5493 138.986 35.3258 137.153 35.907C135.991 34.3871 134.695 33.0462 133.354 31.7947C136.304 29.9172 139.344 29.3809 142.16 30.1406V30.1406ZM46.8603 45.2493C45.9215 42.8351 46.2343 39.9748 47.6649 37.4717C49.095 34.9682 51.4195 33.0018 54.191 32.1972C57.0517 31.3478 60.1359 31.7498 63.1757 33.5381C61.4179 35.118 59.857 36.904 58.5267 38.8574C56.2022 37.6503 53.8333 37.4269 52.4925 39.8851C51.1068 42.5228 52.7159 44.1764 54.9955 45.4279C54.6828 46.1881 54.3696 46.9927 54.1017 47.7973C53.7884 48.7805 53.4757 49.8085 53.2078 50.8366C49.9445 49.5851 47.7991 47.6631 46.8603 45.2493V45.2493ZM52.269 106.175C52.2241 106.175 51.9558 106.264 51.9558 106.309C51.822 106.354 51.6879 106.398 51.5537 106.488C51.1961 106.622 50.8384 106.845 50.4812 107.113C49.2292 108.008 47.7093 108.678 46.5471 108.767C45.2063 108.901 44.4465 108.32 44.3124 106.711C45.2511 106.398 45.6532 106.175 46.0108 105.639L45.2956 105.102C45.0277 105.46 44.7593 105.594 43.9547 105.862C43.9098 105.862 43.9098 105.862 43.865 105.907C43.1501 105.504 43.0159 104.879 43.4185 103.985C43.7761 103.18 44.5807 102.241 45.2511 101.75C47.3966 100.185 50.2573 99.4254 53.118 99.604C53.118 100.721 53.1629 101.839 53.118 102.911C53.118 103.046 53.118 103.135 53.0731 103.269C53.0287 103.895 53.0287 104.163 52.9838 104.476C52.8501 105.772 52.7604 105.951 52.269 106.175V106.175ZM65.768 173.626L65.6783 173.716C64.0247 175.146 63.2201 175.727 62.192 176.308C60.4935 177.336 59.3313 177.113 58.5267 176.13C58.3925 175.995 58.3032 175.816 58.2139 175.682C58.169 175.637 58.1242 175.549 58.0797 175.504V175.459C58.1695 174.654 58.4823 174.073 59.2869 172.822C59.3317 172.777 59.3317 172.777 59.3317 172.732C59.8231 172.017 60.0466 171.615 60.2701 171.123L59.4655 170.765C59.2869 171.168 59.0634 171.526 58.616 172.24C58.5711 172.285 58.5711 172.285 58.5711 172.33C57.767 173.492 57.4089 174.207 57.2303 175.012H57.1854H57.0512C56.9615 174.967 56.8278 174.878 56.6492 174.699C54.9058 171.928 56.2915 169.559 60.2247 166.608C60.7166 166.251 62.3706 165.089 62.8176 164.731C62.9073 164.731 62.9962 164.686 63.0859 164.641C65.4992 166.698 68.3155 168.486 71.4446 169.961C71.4446 170.006 71.4895 170.051 71.5339 170.095C69.7013 170.542 68.2707 171.481 65.7676 173.626H65.768ZM140.819 168.754C142.204 171.079 142.16 172.956 140.416 174.252C140.282 173.984 140.193 173.671 140.014 173.224C140.014 173.179 140.014 173.179 139.969 173.134C139.344 171.436 138.942 170.721 138.181 169.916L137.555 170.542C138.226 171.168 138.539 171.838 139.165 173.403C139.165 173.448 139.165 173.448 139.21 173.492C139.433 174.073 139.567 174.431 139.701 174.744C138.539 175.727 137.511 175.906 136.438 175.414C135.499 175.012 134.605 174.162 133.175 172.554C133.086 172.464 132.996 172.33 132.907 172.196C132.862 172.151 132.817 172.106 132.772 172.017C132.683 171.928 132.683 171.928 132.639 171.838C130.985 169.916 130.001 168.888 128.928 168.307C131.432 166.877 133.667 165.267 135.678 163.39C137.555 164.776 139.656 166.832 140.819 168.754V168.754ZM141.444 154.271C137.6 162.005 130.806 167.458 121.687 170.765C113.909 173.582 104.701 174.744 95.1803 174.386C78.7757 173.805 64.5614 168.084 57.9011 157.266C53.4312 150.069 51.9558 140.906 52.3583 128.301C52.4925 124.859 52.6711 121.775 53.118 116.143C53.6098 109.795 53.744 107.963 53.8782 105.102C53.9675 103.046 53.9675 100.945 53.9231 98.7101C53.8333 94.7765 53.6098 91.6474 53.0287 84.6295C52.2241 75.332 52.0006 71.2642 52.0899 66.1683C52.2246 59.4641 53.118 53.5631 54.9955 47.9763C58.034 38.9014 63.6222 32.7774 71.6681 28.7998C78.4176 25.4926 86.5977 23.7936 97.7278 22.8993C108.143 22.8993 115.742 23.8381 122.313 26.2519C130.179 29.1575 136.035 34.2529 140.058 42.0758C142.651 48.4228 144.171 55.2621 144.975 63.129C145.601 69.1188 145.735 73.9463 145.78 84.8974V88.3841C145.825 93.7928 145.914 97.5923 146.138 101.392C146.227 102.867 146.271 103.493 146.495 107.024C146.987 114.623 147.166 118.557 147.21 123.116C147.3 135.944 145.69 145.823 141.444 154.271H141.444ZM155.122 105.325C155.077 105.325 155.033 105.281 154.989 105.281C154.184 105.013 153.916 104.834 153.647 104.521L152.932 105.057C153.335 105.594 153.737 105.817 154.631 106.13C154.452 107.739 153.692 108.32 152.396 108.186C151.234 108.096 149.714 107.382 148.462 106.532C148.104 106.264 147.747 106.085 147.39 105.907C147.345 105.907 147.3 105.862 147.255 105.862C147.076 103.404 147.076 102.778 146.987 101.481L146.853 99.0673C149.356 99.1122 151.815 99.8719 153.692 101.258C154.363 101.749 155.167 102.688 155.525 103.492C155.972 104.253 155.882 104.923 155.122 105.325V105.325Z" fill="black"/>
<path d="M104.461 68.6403C104.505 70.9199 104.952 73.423 104.55 75.8368C103.924 76.999 102.762 77.1337 101.734 77.5802C100.303 77.3567 99.0963 76.4179 98.5157 75.0771C98.158 72.3505 98.605 69.7577 98.7391 67.0311C98.7391 66.9414 100.438 67.076 101.958 67.523C103.253 67.925 104.461 68.5955 104.461 68.6403V68.6403ZM91.8106 68.8189C90.5586 73.5576 93.4646 81.2903 98.2473 74.9429C97.8897 72.2608 98.2922 69.6684 98.4259 67.0311C98.4708 66.8077 91.8554 68.5062 91.8106 68.8189V68.8189Z" fill="white"/>
<path d="M104.994 70.741C104.905 69.3997 104.86 68.8634 104.86 68.193V67.8803L104.547 67.7905L98.9153 66.0476V65.7344L98.3342 65.869H98.2893V65.9134L91.9423 67.5226L91.7189 67.5675L91.6291 67.7905C90.6459 70.1599 90.8694 73.7359 92.1209 75.9262C93.5515 78.4293 95.8756 78.4737 98.2449 75.613C98.5751 76.2502 99.0505 76.8007 99.6329 77.2201C100.215 77.6395 100.888 77.916 101.597 78.0272H101.732L101.865 77.9823C102.044 77.8926 102.223 77.8477 102.536 77.714C102.581 77.714 102.581 77.714 102.626 77.6691C103.921 77.2222 104.458 76.8645 104.905 76.0155L104.95 75.9706V75.8813C105.084 75.0767 105.129 74.2273 105.129 73.2889C105.129 72.6181 105.084 71.9921 104.994 70.741V70.741ZM97.8424 69.0869C97.7975 69.8915 97.7531 70.2043 97.7087 70.6512C97.6189 72.3053 97.6189 73.5568 97.7535 74.8084C95.6521 77.4905 93.9985 77.4905 92.8811 75.4788C91.8082 73.6017 91.5842 70.4278 92.3893 68.3272L98.021 66.8966C97.9766 67.4777 97.9321 68.0589 97.8424 69.0869V69.0869ZM104.101 75.7027C103.788 76.239 103.385 76.5073 102.312 76.865C102.267 76.865 102.267 76.865 102.223 76.9094C101.955 76.9991 101.776 77.088 101.642 77.1329C100.435 76.9094 99.4071 76.1048 98.9153 74.9874C98.7812 73.7803 98.7812 72.5288 98.8705 70.8752C98.9153 70.4278 98.9153 70.115 99.0051 69.3104C99.0939 68.2828 99.1388 67.6568 99.1388 67.0757L104.011 68.5507C104.011 69.1318 104.056 69.668 104.145 70.8303C104.235 72.0374 104.279 72.6629 104.279 73.3782C104.279 74.2273 104.234 74.9874 104.101 75.7027Z" fill="black"/>
<path d="M64.9064 49.1657C69.0187 65.1678 94.6315 61.0555 93.6483 45.0085C92.4856 25.7876 60.9727 29.4978 64.9059 49.1657" fill="white"/>
<path d="M94.0954 44.9637C93.8271 40.3147 91.7709 36.6943 88.374 34.4147C85.3342 32.3585 81.3112 31.5539 77.3331 32.0453C73.355 32.5825 69.6893 34.3702 67.2755 37.1865C64.5938 40.3152 63.5657 44.4274 64.5045 49.1657L64.9066 49.0759L64.5045 49.1657C68.7061 65.6148 95.0786 61.6367 94.0954 44.9637V44.9637ZM65.3086 49.0764C64.4148 44.5621 65.3984 40.7177 67.9015 37.8121C70.1811 35.1748 73.6229 33.4319 77.4224 32.9401C81.2219 32.4483 85.0214 33.2084 87.8826 35.1748C91.0556 37.3207 92.978 40.6733 93.2459 45.0983C94.1847 60.6983 69.2872 64.4534 65.3091 49.0764H65.3086Z" fill="black"/>
<path d="M71.9686 51.2217C74.3631 51.2217 76.3043 49.1204 76.3043 46.5283C76.3043 43.9363 74.3631 41.835 71.9686 41.835C69.574 41.835 67.6328 43.9363 67.6328 46.5283C67.6328 49.1204 69.574 51.2217 71.9686 51.2217Z" fill="black"/>
<path d="M73.9382 48.8079C74.506 48.8079 74.9663 48.2676 74.9663 47.6012C74.9663 46.9348 74.506 46.3945 73.9382 46.3945C73.3704 46.3945 72.9102 46.9348 72.9102 47.6012C72.9102 48.2676 73.3704 48.8079 73.9382 48.8079Z" fill="white"/>
<path d="M100.821 46.1734C103.995 64.5449 134.033 59.6725 129.697 41.1668C125.809 24.5387 99.7483 29.1428 100.821 46.1734Z" fill="white"/>
<path d="M130.1 41.0765C126.122 23.9566 99.3026 28.65 100.375 46.2168V46.2617C101.85 54.9332 109.583 59.3587 118.121 57.9281C122.009 57.2577 125.496 55.3806 127.775 52.6092C130.278 49.5245 131.172 45.5464 130.1 41.0765V41.0765ZM127.105 52.0725C124.959 54.6653 121.697 56.4531 117.986 57.0791C109.896 58.4199 102.654 54.2628 101.224 46.1275C100.24 29.5887 125.54 25.1632 129.295 41.2551C130.279 45.5016 129.474 49.2117 127.105 52.0725V52.0725Z" fill="black"/>
<path d="M108.192 50.0616C110.537 50.0616 112.438 47.9603 112.438 45.3682C112.438 42.7761 110.537 40.6748 108.192 40.6748C105.847 40.6748 103.945 42.7761 103.945 45.3682C103.945 47.9603 105.847 50.0616 108.192 50.0616Z" fill="black"/>
<path d="M110.163 47.6467C110.706 47.6467 111.146 47.1065 111.146 46.4401C111.146 45.7736 110.706 45.2334 110.163 45.2334C109.62 45.2334 109.18 45.7736 109.18 46.4401C109.18 47.1065 109.62 47.6467 110.163 47.6467Z" fill="white"/>
<path d="M92.7322 59.1627C89.2006 59.4755 86.3399 63.6326 88.173 66.9403C90.5863 71.3209 95.995 66.5382 99.3475 66.9852C103.236 67.0749 106.41 71.0974 109.494 67.7005C112.936 63.9454 108.019 60.2801 104.13 58.6709L92.7322 59.1627Z" fill="#F6D2A2"/>
<path d="M109.943 62.1568C108.735 60.6369 106.635 59.2512 104.355 58.3125L104.266 58.2676H104.176L92.7333 58.715C88.7548 59.0726 85.8945 63.6767 87.816 67.163C88.5762 68.5043 89.6043 69.1747 90.99 69.264C92.0176 69.3089 93.091 69.0854 94.7446 68.5043C94.8788 68.4594 95.0574 68.4145 95.2808 68.3252C97.516 67.5655 98.4099 67.342 99.3038 67.4762H99.3487C100.421 67.4762 101.316 67.789 103.014 68.4594C104.892 69.2191 105.473 69.443 106.411 69.5319C107.708 69.6216 108.825 69.1747 109.853 68.0573C111.596 66.1349 111.507 64.0788 109.943 62.1568V62.1568ZM109.182 67.4313C108.333 68.3701 107.484 68.6833 106.456 68.6384C105.651 68.5936 105.115 68.3701 103.327 67.6548C101.539 66.8951 100.556 66.6272 99.3935 66.5823C98.2762 66.4477 97.3374 66.6716 94.9681 67.4762C94.7446 67.5655 94.566 67.6104 94.4318 67.6548C91.1686 68.7722 89.6043 68.6829 88.5313 66.716C86.9221 63.8109 89.3808 59.8772 92.7333 59.5644L104.042 59.117C106.188 60.0114 108.11 61.3074 109.227 62.6935C110.568 64.3023 110.613 65.9114 109.182 67.4313V67.4313Z" fill="#231F20"/>
<path d="M105.026 57.2406C103.64 52.1447 92.0179 52.9048 92.2858 58.9839C92.8669 63.4983 106.366 62.2912 105.026 57.2406Z" fill="black"/>
</g>
<defs>
<clipPath id="clip0_436_32">
<rect width="114.878" height="156.169" fill="white" transform="translate(42.1211 21.916)"/>
</clipPath>
</defs>
</svg>
