<svg width="200" height="200" viewBox="0 0 200 200" fill="none" xmlns="http://www.w3.org/2000/svg">
<path d="M98.7597 52.6086C91.8748 57.4508 84.0718 62.9391 79.8907 72.0191C72.6287 87.8606 94.7506 105.14 95.6961 105.868C95.9159 106.037 96.1789 106.122 96.4411 106.122C96.7196 106.122 96.9984 106.026 97.2248 105.837C97.664 105.469 97.7885 104.846 97.5249 104.337C97.4449 104.183 89.5042 88.7593 89.7993 77.6942C89.9037 73.8403 95.2972 69.4683 101.007 64.8397C106.236 60.6002 112.164 55.7952 115.633 50.1742C123.247 37.8014 114.784 25.6351 114.698 25.5135C114.362 25.0414 113.741 24.8706 113.211 25.1031C112.681 25.3371 112.387 25.9101 112.508 26.4767C112.525 26.5573 114.171 34.6028 109.592 42.8918C107.705 46.3171 103.56 49.2325 98.7597 52.6086Z" fill="#DB380E"/>
<path d="M127.766 58.0651C128.252 57.6993 128.394 57.032 128.101 56.4995C127.807 55.9669 127.166 55.7321 126.598 55.948C125.428 56.3927 97.957 66.9819 97.957 79.7764C97.957 88.5963 101.725 93.2555 104.476 96.658C105.555 97.9926 106.486 99.1451 106.793 100.129C107.657 102.964 105.61 108.089 104.749 109.825C104.501 110.324 104.622 110.928 105.044 111.293C105.273 111.49 105.558 111.59 105.843 111.59C106.085 111.59 106.329 111.518 106.54 111.371C107.012 111.043 118.084 103.215 116.098 93.7839C115.358 90.1992 113.597 87.5801 112.043 85.2688C109.635 81.6878 107.896 79.1013 110.534 74.3239C113.625 68.7516 127.624 58.1711 127.766 58.0651Z" fill="#DB380E"/>
<path d="M56.2604 111.791C55.7895 113.201 56.0119 114.6 56.9027 115.837C59.8806 119.972 70.4291 122.248 86.6062 122.248C86.607 122.248 86.6076 122.248 86.6082 122.248C88.8001 122.248 91.1143 122.205 93.4846 122.12C119.349 121.194 128.942 113.137 129.338 112.794C129.769 112.421 129.884 111.799 129.616 111.296C129.348 110.794 128.77 110.541 128.217 110.693C119.108 113.18 102.099 114.063 90.3009 114.063C77.0995 114.063 70.3765 113.112 68.7305 112.41C69.575 111.25 74.7842 109.179 81.2392 107.91C81.8562 107.789 82.2802 107.219 82.2191 106.593C82.158 105.967 81.6324 105.49 81.0035 105.49C77.2197 105.49 58.244 105.794 56.2604 111.791Z" fill="#73A1FB"/>
<path d="M142.808 103.491C137.474 103.491 132.415 106.165 132.202 106.278C131.709 106.543 131.458 107.108 131.594 107.652C131.729 108.195 132.217 108.576 132.777 108.577C132.89 108.577 144.156 108.669 145.177 115.106C146.081 120.659 134.517 129.657 129.985 132.655C129.496 132.979 129.306 133.605 129.533 134.146C129.726 134.607 130.175 134.895 130.659 134.895C130.743 134.895 130.828 134.886 130.913 134.868C131.989 134.638 157.223 129.077 154.555 114.385C152.927 105.381 147.268 103.491 142.808 103.491Z" fill="#73A1FB"/>
<path d="M125.505 130.858C125.593 130.387 125.398 129.908 125.006 129.633L118.955 125.395C118.66 125.189 118.287 125.124 117.941 125.215C117.878 125.231 111.551 126.895 102.364 127.915C98.7185 128.324 94.635 128.54 90.5544 128.54C81.3705 128.54 75.3656 127.461 74.4911 126.669C74.3753 126.447 74.4119 126.346 74.4326 126.289C74.5915 125.848 75.443 125.323 75.9919 125.115C76.5981 124.891 76.9249 124.232 76.7363 123.614C76.5483 122.995 75.9107 122.631 75.2815 122.782C69.2121 124.247 66.2443 126.295 66.4602 128.87C66.8438 133.435 77.417 135.777 86.3556 136.397C87.641 136.485 89.0312 136.529 90.4866 136.529C90.4874 136.529 90.488 136.529 90.4889 136.529C105.352 136.529 124.407 131.866 124.597 131.818C125.063 131.705 125.417 131.329 125.505 130.858Z" fill="#73A1FB"/>
<path d="M79.8899 140.655C80.3482 140.357 80.5514 139.79 80.3887 139.269C80.2266 138.747 79.7386 138.404 79.1903 138.411C78.3769 138.433 71.2313 138.755 70.731 143.305C70.5797 144.664 70.9691 145.907 71.889 146.997C74.4546 150.037 81.3802 151.844 93.0578 152.521C94.4393 152.604 95.8426 152.646 97.2293 152.646C112.075 152.646 122.074 147.997 122.493 147.799C122.899 147.607 123.167 147.208 123.191 146.76C123.214 146.312 122.991 145.887 122.608 145.653L114.961 140.985C114.696 140.823 114.378 140.769 114.076 140.831C114.027 140.842 109.172 141.848 101.845 142.843C100.459 143.032 98.7227 143.127 96.6856 143.127C89.3666 143.127 81.2257 141.932 79.6644 141.149C79.6417 141.002 79.6705 140.817 79.8899 140.655Z" fill="#73A1FB"/>
<path d="M90.308 166.68C124.314 166.651 142.566 160.603 146.082 156.797C147.327 155.451 147.461 154.177 147.356 153.344C147.094 151.295 145.228 150.041 145.017 149.905C144.506 149.576 143.821 149.662 143.423 150.122C143.026 150.581 143.016 151.252 143.415 151.711C143.63 151.987 143.754 152.448 143.126 153.076C141.721 154.389 127.544 158.374 103.939 159.571C100.706 159.739 97.3142 159.825 93.8596 159.825C72.7251 159.825 57.2578 156.93 55.2274 155.243C56.0099 154.119 61.481 152.322 67.2993 151.306C67.955 151.192 68.3979 150.574 68.2964 149.916C68.1948 149.259 67.5886 148.806 66.926 148.892C66.7618 148.915 66.2048 148.948 65.5599 148.987C55.9599 149.574 44.866 150.88 44.2872 155.826C44.1114 157.334 44.5593 158.702 45.6189 159.893C48.2116 162.806 55.6636 166.679 90.3068 166.679C90.3074 166.68 90.3074 166.68 90.308 166.68Z" fill="#73A1FB"/>
<path d="M152.761 157.87C152.28 157.648 151.712 157.76 151.354 158.147C151.304 158.201 146.191 163.547 130.818 166.687C124.933 167.866 113.886 168.464 97.9841 168.464C82.0524 168.464 66.8924 167.837 66.7414 167.831C66.1082 167.8 65.5666 168.26 65.4804 168.883C65.394 169.506 65.7956 170.093 66.407 170.239C66.5648 170.276 82.4522 173.998 104.175 173.998C114.594 173.998 124.732 173.152 134.309 171.483C152.166 168.352 153.416 159.498 153.461 159.122C153.523 158.597 153.241 158.092 152.761 157.87Z" fill="#73A1FB"/>
</svg>
