<svg width="200" height="200" viewBox="0 0 200 200" fill="none" xmlns="http://www.w3.org/2000/svg">
<g clip-path="url(#clip0_436_90)">
<path d="M93.7526 27.8701C97.4069 25.7785 102.167 25.769 105.818 27.8701C124.186 38.2492 142.56 48.612 160.925 58.9974C164.38 60.9432 166.69 64.7874 166.655 68.7676V131.212C166.681 135.357 164.142 139.293 160.498 141.195C142.19 151.517 123.891 161.851 105.586 172.173C101.856 174.306 97.0011 174.141 93.3878 171.834C87.8991 168.652 82.4009 165.486 76.9117 162.307C75.79 161.639 74.5255 161.106 73.7335 160.019C74.4337 159.075 75.6855 158.958 76.7028 158.546C78.9939 157.817 81.0981 156.648 83.2029 155.513C83.7352 155.148 84.385 155.288 84.8952 155.614C89.5887 158.305 94.2407 161.074 98.95 163.74C99.9546 164.32 100.972 163.55 101.831 163.071C119.796 152.917 137.784 142.802 155.747 132.645C156.412 132.324 156.78 131.618 156.726 130.889C156.739 110.29 156.729 89.6869 156.733 69.0878C156.809 68.2606 156.33 67.5 155.582 67.1615C137.337 56.8868 119.102 46.5965 100.861 36.3192C100.545 36.1019 100.171 35.9854 99.7872 35.9848C99.4036 35.9842 99.0289 36.0997 98.7122 36.3161C80.4709 46.5965 62.239 56.8963 43.9977 67.1704C43.2524 67.5095 42.7521 68.2574 42.8408 69.0878C42.844 89.6869 42.8408 110.29 42.8408 130.892C42.8092 131.248 42.8873 131.605 43.0647 131.915C43.2421 132.225 43.5102 132.473 43.8329 132.626C48.7007 135.386 53.5747 138.127 58.4457 140.878C61.1898 142.355 64.559 143.233 67.5824 142.101C70.2503 141.144 72.1205 138.421 72.0696 135.589C72.0948 115.11 72.057 94.6277 72.0885 74.1519C72.0218 73.2428 72.8842 72.4917 73.7681 72.5772C76.107 72.5615 78.4491 72.5457 80.7879 72.5835C81.7642 72.5615 82.4361 73.5404 82.3154 74.4563C82.3059 95.0649 82.3406 115.674 82.2996 136.283C82.3059 141.775 80.0494 147.751 74.9691 150.439C68.7103 153.681 60.9746 152.993 54.7914 149.884C49.4387 147.213 44.3305 144.06 39.0727 141.198C35.419 139.306 32.8927 135.355 32.9184 131.213V68.7676C32.8801 64.705 35.2825 60.7909 38.8444 58.8735C57.1492 48.5433 75.4509 38.2051 93.7526 27.8701Z" fill="#8CC84B"/>
<path d="M109.721 71.1254C117.705 70.6116 126.251 70.821 133.435 74.7539C138.998 77.7678 142.081 84.0932 142.179 90.2727C142.024 91.1062 141.153 91.566 140.357 91.5088C138.041 91.5057 135.724 91.5403 133.408 91.4931C132.425 91.5309 131.854 90.6249 131.731 89.7562C131.065 86.7995 129.453 83.8712 126.67 82.4451C122.398 80.3062 117.444 80.4138 112.786 80.4584C109.385 80.639 105.728 80.9334 102.847 82.9332C100.635 84.4481 99.9635 87.506 100.753 89.9688C101.497 91.7371 103.538 92.3077 105.209 92.8336C114.83 95.3499 125.025 95.0995 134.463 98.411C138.37 99.7611 142.192 102.385 143.529 106.476C145.279 111.959 144.512 118.513 140.611 122.915C137.448 126.537 132.84 128.508 128.245 129.579C122.131 130.942 115.787 130.977 109.579 130.372C103.741 129.706 97.6661 128.173 93.1594 124.195C89.3057 120.849 87.4235 115.635 87.6103 110.603C87.6549 109.753 88.5011 109.161 89.3151 109.231C91.6477 109.212 93.9803 109.205 96.3129 109.234C97.2446 109.167 97.9353 109.972 97.9831 110.85C98.4135 113.667 99.4722 116.624 101.929 118.294C106.669 121.353 112.618 121.143 118.046 121.229C122.544 121.029 127.592 120.969 131.262 117.997C133.198 116.301 133.772 113.465 133.249 111.025C132.682 108.964 130.527 108.004 128.676 107.377C119.178 104.372 108.869 105.462 99.4628 102.065C95.6442 100.715 91.9516 98.1638 90.4846 94.2408C88.4375 88.6886 89.3755 81.821 93.6853 77.5679C97.8876 73.3373 103.954 71.708 109.721 71.1249V71.1254Z" fill="#8CC84B"/>
</g>
<defs>
<clipPath id="clip0_436_90">
<rect width="134.4" height="148.018" fill="white" transform="translate(32.6016 25.9912)"/>
</clipPath>
</defs>
</svg>
