<svg width="200" height="200" viewBox="0 0 200 200" fill="none" xmlns="http://www.w3.org/2000/svg">
<path fill-rule="evenodd" clip-rule="evenodd" d="M193.392 99.9369C193.392 126.076 151.579 147.266 100.001 147.266C48.4228 147.266 6.60938 126.076 6.60938 99.9369C6.60938 73.7984 48.4228 52.6082 100.001 52.6082C151.579 52.6082 193.392 73.7984 193.392 99.9369ZM65.0271 103.481C63.0238 105.023 59.8576 105.805 55.6166 105.805H50.1072L53.8646 86.4713H60.6422C64.5511 86.4713 67.1404 87.1441 68.338 88.4707C69.5093 89.7696 69.7641 92.1764 69.0952 95.6234C68.3777 99.3112 67.0089 101.955 65.0271 103.481ZM32.6354 129.236C32.8354 129.48 33.1342 129.62 33.4488 129.62H44.6098C45.1146 129.62 45.5484 129.262 45.6447 128.767L48.1264 115.999H56.8167C61.1287 115.999 64.7416 115.534 67.5548 114.618C70.4134 113.689 73.0455 112.111 75.3712 109.934C77.314 108.148 78.9117 106.146 80.1205 103.983C81.328 101.822 82.1963 99.4079 82.701 96.8087C83.9415 90.429 82.9619 85.3528 79.7894 81.7212C76.6338 78.1087 71.6134 76.2773 64.8685 76.2773H43.4069C42.9022 76.2773 42.468 76.6351 42.3717 77.1304L32.4139 128.364C32.3538 128.673 32.435 128.993 32.6354 129.236ZM107.478 115.614C107.678 115.857 107.976 115.998 108.291 115.998H119.54C120.045 115.998 120.479 115.64 120.575 115.145L125.208 91.3029C126.221 86.0905 125.399 82.2214 122.766 79.8015C120.183 77.4295 115.748 76.2765 109.208 76.2765H100.624L103.027 63.9108C103.087 63.6015 103.006 63.282 102.805 63.0387C102.605 62.7958 102.306 62.6552 101.991 62.6552H90.9187C90.4139 62.6552 89.9798 63.013 89.8834 63.5083L79.9256 114.742C79.8655 115.051 79.9467 115.371 80.1471 115.614C80.3475 115.857 80.6459 115.998 80.9609 115.998H92.0337C92.5385 115.998 92.9726 115.64 93.0689 115.145L98.6071 86.6463H106.587C109.884 86.6463 110.999 87.3166 111.37 87.7163C111.977 88.3701 112.08 89.9175 111.661 92.0734L107.256 114.742C107.196 115.052 107.277 115.371 107.478 115.614ZM142.73 105.805C146.971 105.805 150.137 105.023 152.14 103.481C154.122 101.955 155.491 99.3115 156.209 95.6234C156.878 92.1764 156.623 89.7696 155.451 88.4707C154.254 87.1441 151.664 86.4713 147.755 86.4713H140.978L137.22 105.805H142.73ZM120.562 129.62C120.248 129.62 119.949 129.48 119.749 129.236C119.549 128.993 119.467 128.673 119.527 128.364L129.485 77.1304C129.582 76.6351 130.015 76.2773 130.521 76.2773H151.982C158.727 76.2773 163.747 78.1087 166.903 81.7212C170.075 85.3524 171.055 90.4287 169.815 96.8087C169.309 99.4079 168.441 101.822 167.234 103.983C166.025 106.146 164.427 108.148 162.484 109.934C160.159 112.111 157.527 113.689 154.668 114.618C151.855 115.534 148.242 115.999 143.93 115.999H135.239L132.759 128.767C132.662 129.262 132.228 129.62 131.723 129.62H120.562Z" fill="#187BD0"/>
</svg>
