<svg width="200" height="200" viewBox="0 0 200 200" fill="none" xmlns="http://www.w3.org/2000/svg">
<g clip-path="url(#clip0_436_150)">
<path d="M99.5067 31C64.5455 31 66.7287 46.1613 66.7287 46.1613L66.7677 61.8682H100.13V66.5842H53.5162C53.5162 66.5842 31.1445 64.047 31.1445 99.3232C31.1445 134.599 50.671 133.348 50.671 133.348H62.3245V116.979C62.3245 116.979 61.6964 97.4524 81.5392 97.4524C101.382 97.4524 114.629 97.4524 114.629 97.4524C114.629 97.4524 133.22 97.7529 133.22 79.4849C133.22 61.2169 133.22 49.2793 133.22 49.2793C133.22 49.2793 136.043 31 99.5067 31ZM81.1105 41.5622C84.4298 41.5622 87.1126 44.245 87.1126 47.5644C87.1126 50.8837 84.4298 53.5665 81.1105 53.5665C77.7911 53.5665 75.1083 50.8837 75.1083 47.5644C75.1083 44.245 77.7911 41.5622 81.1105 41.5622Z" fill="url(#paint0_linear_436_150)"/>
<path d="M100.494 168C135.456 168 133.272 152.839 133.272 152.839L133.233 137.132H99.8708V132.416H146.485C146.485 132.416 168.857 134.953 168.857 99.6771C168.857 64.401 149.33 65.652 149.33 65.652H137.677V82.0215C137.677 82.0215 138.305 101.548 118.462 101.548C98.619 101.548 85.3721 101.548 85.3721 101.548C85.3721 101.548 66.781 101.247 66.781 119.515C66.781 137.783 66.781 149.721 66.781 149.721C66.781 149.721 63.9584 168 100.494 168ZM118.891 157.438C115.571 157.438 112.888 154.755 112.888 151.436C112.888 148.117 115.571 145.434 118.891 145.434C122.21 145.434 124.893 148.117 124.893 151.436C124.893 154.755 122.21 157.438 118.891 157.438Z" fill="url(#paint1_linear_436_150)"/>
</g>
<defs>
<linearGradient id="paint0_linear_436_150" x1="44.3794" y1="42.975" x2="112.477" y2="111.3" gradientUnits="userSpaceOnUse">
<stop stop-color="#387EB8"/>
<stop offset="1" stop-color="#366994"/>
</linearGradient>
<linearGradient id="paint1_linear_436_150" x1="86.2647" y1="86.4405" x2="159.401" y2="156.509" gradientUnits="userSpaceOnUse">
<stop stop-color="#FFE052"/>
<stop offset="1" stop-color="#FFC331"/>
</linearGradient>
<clipPath id="clip0_436_150">
<rect width="137.717" height="137" fill="white" transform="translate(31.1484 31)"/>
</clipPath>
</defs>
</svg>
