<svg width="200" height="200" viewBox="0 0 200 200" fill="none" xmlns="http://www.w3.org/2000/svg">
<path fill-rule="evenodd" clip-rule="evenodd" d="M71.5355 148.069C99.4306 151.878 126.83 155.619 154.774 159.432C145.254 143.582 135.978 128.138 126.628 112.567L71.5355 148.069V148.069ZM162.647 60.3367C160.188 64.0295 157.724 67.7193 155.269 71.4141C146.835 84.1023 138.402 96.7905 129.977 109.485C129.507 110.192 128.899 110.752 129.56 111.842C137.701 125.286 145.779 138.769 153.876 152.241C155.154 154.368 156.446 156.488 158.098 158.529C159.735 125.833 161.372 93.1363 163.008 60.4403L162.647 60.3367V60.3367ZM51.5084 102.255C51.8892 102.615 52.8398 102.825 53.2827 102.607C61.0918 98.7689 68.9507 95.0162 76.5892 90.8623C79.0805 89.5085 80.996 87.0811 83.142 85.1129C90.2484 78.5956 97.3435 72.0651 104.436 65.5336C104.869 65.1325 105.383 64.7445 105.642 64.2387C108.189 59.2601 110.693 54.2561 113.285 49.1079C110.194 47.9461 107.264 46.8096 104.297 45.7757C103.895 45.6355 103.262 45.9138 102.826 46.1565C95.9592 49.9925 88.9636 53.6244 82.3153 57.8078C78.9891 59.901 76.2795 62.9854 73.3341 65.6718C68.5871 70.0044 63.8462 74.3472 59.1682 78.755C57.9271 79.925 56.7957 81.2616 55.8288 82.6693C52.6296 87.3279 49.5259 92.0536 46.2799 96.9134C48.0938 98.7893 49.7432 100.583 51.5084 102.255V102.255ZM80.0495 95.8856C76.1647 112.297 72.3033 128.616 68.3129 145.471C87.0238 133.415 105.303 121.637 123.461 109.938C109.011 105.261 94.6074 100.598 80.0495 95.8856ZM157.878 60.4951C142.069 63.1368 126.637 65.7144 111.007 68.3256C116.331 81.2758 121.548 93.9661 126.913 107.017C137.294 91.4178 147.47 76.1317 157.878 60.4951V60.4951ZM80.7015 92.5289C94.9375 97.15 108.89 101.68 123.248 106.341C117.916 93.3516 112.767 80.8157 107.511 68.0148C98.5582 76.1997 89.7395 84.2638 80.7015 92.5289ZM52.0964 111.825C47.0477 123.893 42.1707 135.552 37.2053 147.42C46.7481 147.138 55.9984 146.865 65.5666 146.583C61.0745 134.992 56.6708 123.629 52.0964 111.825V111.825ZM65.9018 138.329L66.2532 138.251C69.6586 124.093 73.1127 110.031 76.5892 95.3189C68.8339 99.3499 61.4361 103.194 53.8362 107.145C57.7148 117.226 61.8505 127.861 65.9018 138.329V138.329ZM152.156 58.1988C147.627 56.9993 143.098 55.7958 138.568 54.6045C132.056 52.8921 125.538 51.2011 119.03 49.4736C118.217 49.2572 117.629 49.1161 117.15 50.0961C114.85 54.8086 112.478 59.4856 110.141 64.1808C110.069 64.3261 110.085 64.5139 110.029 64.8786C124.132 62.7417 138.14 60.618 152.147 58.4954L152.156 58.1988ZM125.883 47.4799L162.793 57.691C160.677 51.6592 158.714 46.0661 156.695 40.3136L125.936 47.1336L125.883 47.4799V47.4799ZM69.0309 150.788C64.4596 150.261 59.7664 150.746 55.1301 150.826C51.3215 150.89 47.5129 151.035 43.7043 151.154C43.3123 151.166 42.9213 151.245 42.5302 151.668C74.0177 154.579 105.504 157.489 136.99 160.402L137.054 159.982C126.961 158.603 116.867 157.225 106.774 155.848C94.1961 154.131 81.6399 152.242 69.0309 150.788V150.788ZM37.8279 136.556C41.8853 127.141 45.9255 117.721 49.9991 108.313C50.4064 107.369 50.3749 106.728 49.5777 105.969C47.8734 104.347 46.2901 102.599 44.4274 100.661C41.9097 113.092 39.4539 125.216 36.9961 137.338L37.2713 137.467C37.4592 137.166 37.6888 136.88 37.8279 136.556V136.556ZM117.798 44.9946C124.64 43.2295 131.582 41.8493 138.483 40.3096C138.93 40.209 139.367 40.0618 139.807 39.9358L139.739 39.5986C130.018 40.9057 120.299 42.2139 110.089 43.588C112.872 44.8037 115.017 45.7117 117.798 44.9946Z" fill="#D91404"/>
</svg>
