<svg width="342" height="200" viewBox="0 0 342 200" fill="none" xmlns="http://www.w3.org/2000/svg">
<g clip-path="url(#clip0_627_10)">
<path fill-rule="evenodd" clip-rule="evenodd" d="M97.2899 72.6363C97.2899 76.752 97.7348 80.089 98.5135 82.5362C99.4033 84.9833 100.516 87.653 102.073 90.5451C102.629 91.4349 102.852 92.3248 102.852 93.1035C102.852 94.2158 102.184 95.3282 100.738 96.4405L93.7304 101.112C92.7293 101.78 91.7281 102.113 90.8383 102.113C89.7259 102.113 88.6136 101.557 87.5012 100.556C85.9439 98.8877 84.6091 97.1079 83.4968 95.3282C82.3844 93.4372 81.2721 91.3237 80.0485 88.7653C71.3722 98.9989 60.4712 104.116 47.3455 104.116C38.0018 104.116 30.5491 101.446 25.0986 96.1068C19.6481 90.7675 16.8672 83.6485 16.8672 74.7497C16.8672 65.2948 20.2042 57.6196 26.9895 51.8354C33.7749 46.0512 42.7849 43.1591 54.2421 43.1591C58.024 43.1591 61.9172 43.4928 66.0329 44.049C70.1486 44.6051 74.3755 45.495 78.8249 46.4961V38.376C78.8249 29.9221 77.0452 24.0267 73.5969 20.5784C70.0374 17.1301 64.0307 15.4616 55.4656 15.4616C51.5724 15.4616 47.568 15.9066 43.4523 16.9077C39.3366 17.9088 35.3321 19.1324 31.4389 20.6897C29.6592 21.4683 28.3244 21.9132 27.5457 22.1357C26.7671 22.3582 26.2109 22.4694 25.766 22.4694C24.2087 22.4694 23.43 21.3571 23.43 19.0211V13.5706C23.43 11.7909 23.6525 10.4561 24.2087 9.67742C24.7649 8.89878 25.766 8.12013 27.3232 7.34149C31.2165 5.33927 35.8883 3.67075 41.3388 2.33593C46.7893 0.889878 52.5735 0.222469 58.6914 0.222469C71.9284 0.222469 81.6058 3.22581 87.8349 9.23248C93.9529 15.2392 97.0674 24.3604 97.0674 36.5962V72.6363H97.2899ZM52.1286 89.5439C55.7993 89.5439 59.5813 88.8765 63.5858 87.5417C67.5902 86.2069 71.1497 83.7597 74.1531 80.4227C75.9328 78.3092 77.2676 75.9733 77.935 73.3037C78.6025 70.634 79.0474 67.4082 79.0474 63.6263V58.9544C75.8216 58.1758 72.3733 57.5084 68.8138 57.0634C65.2543 56.6185 61.806 56.396 58.3577 56.396C50.905 56.396 45.4545 57.8421 41.7838 60.8454C38.113 63.8487 36.3333 68.0756 36.3333 73.6374C36.3333 78.8654 37.6681 82.7586 40.4489 85.4283C43.1186 88.2091 47.0118 89.5439 52.1286 89.5439ZM141.45 101.557C139.448 101.557 138.113 101.224 137.223 100.445C136.333 99.7775 135.555 98.2203 134.887 96.1068L108.747 10.1224C108.08 7.89766 107.746 6.45161 107.746 5.67297C107.746 3.89321 108.636 2.8921 110.416 2.8921H121.317C123.43 2.8921 124.876 3.22581 125.655 4.00445C126.545 4.67186 127.212 6.22914 127.879 8.3426L146.567 81.98L163.919 8.3426C164.476 6.11791 165.143 4.67186 166.033 4.00445C166.923 3.33704 168.48 2.8921 170.482 2.8921H179.381C181.495 2.8921 182.941 3.22581 183.83 4.00445C184.72 4.67186 185.499 6.22914 185.944 8.3426L203.519 82.8699L222.763 8.3426C223.43 6.11791 224.209 4.67186 224.987 4.00445C225.877 3.33704 227.323 2.8921 229.325 2.8921H239.67C241.45 2.8921 242.451 3.78198 242.451 5.67297C242.451 6.14793 242.37 6.62289 242.277 7.16713L242.277 7.16737L242.276 7.1711C242.261 7.26289 242.245 7.35666 242.229 7.45273C242.117 8.12013 241.895 9.01001 241.45 10.2336L214.642 96.218C213.975 98.4427 213.196 99.8888 212.307 100.556C211.417 101.224 209.971 101.669 208.08 101.669H198.513C196.4 101.669 194.954 101.335 194.064 100.556C193.174 99.7775 192.396 98.3315 191.951 96.1068L174.709 24.3604L157.579 95.9956C157.023 98.2203 156.356 99.6663 155.466 100.445C154.576 101.224 153.018 101.557 151.016 101.557H141.45ZM284.387 104.561C278.602 104.561 272.818 103.893 267.257 102.558C261.695 101.224 257.357 99.7775 254.465 98.109C252.685 97.1079 251.461 95.9956 251.016 94.9944C250.571 93.9933 250.349 92.881 250.349 91.8799V86.2069C250.349 83.871 251.239 82.7586 252.907 82.7586C253.575 82.7586 254.242 82.8699 254.909 83.0923C255.34 83.236 255.911 83.4724 256.56 83.7417C256.916 83.8895 257.296 84.0471 257.69 84.2047C261.472 85.8732 265.588 87.208 269.926 88.0979C274.376 88.9878 278.714 89.4327 283.163 89.4327C290.171 89.4327 295.621 88.2091 299.403 85.762C303.185 83.3148 305.188 79.7553 305.188 75.1947C305.188 72.0801 304.186 69.5217 302.184 67.4082C300.182 65.2948 296.4 63.4038 290.95 61.624L274.82 56.6185C266.7 54.0601 260.694 50.2781 257.023 45.2725C253.352 40.3782 251.461 34.9277 251.461 29.1435C251.461 24.4716 252.462 20.356 254.465 16.7964C256.467 13.2369 259.136 10.1224 262.473 7.6752C265.81 5.1168 269.592 3.22581 274.042 1.89099C278.491 0.556173 283.163 0 288.057 0C290.505 0 293.063 0.111235 295.51 0.444939C298.069 0.778643 300.404 1.22358 302.74 1.66852C304.965 2.22469 307.079 2.78087 309.081 3.44828C311.083 4.11568 312.64 4.78309 313.753 5.4505C315.31 6.34038 316.422 7.23026 317.09 8.23137C317.757 9.12125 318.091 10.3448 318.091 11.9021V17.1301C318.091 19.4661 317.201 20.6897 315.532 20.6897C314.643 20.6897 313.196 20.2447 311.305 19.3548C304.965 16.4627 297.846 15.0167 289.948 15.0167C283.608 15.0167 278.602 16.0178 275.154 18.1313C271.706 20.2447 269.926 23.4705 269.926 28.0311C269.926 31.1457 271.039 33.8154 273.263 35.9288C275.488 38.0423 279.604 40.1557 285.499 42.0467L301.294 47.0523C309.303 49.6107 315.087 53.1702 318.536 57.7308C321.984 62.2914 323.652 67.5195 323.652 73.3037C323.652 78.0868 322.651 82.4249 320.76 86.2069C318.758 89.9889 316.089 93.3259 312.64 95.9956C309.192 98.7764 305.076 100.779 300.293 102.225C295.288 103.782 290.06 104.561 284.387 104.561ZM305.411 158.621C268.814 185.651 215.644 200 169.927 200C105.856 200 48.1247 176.307 4.52073 136.93C1.07245 133.815 4.18702 129.588 8.30271 132.036C55.4662 159.399 113.642 175.973 173.82 175.973C214.421 175.973 259.026 167.52 300.071 150.167C306.189 147.386 311.417 154.171 305.411 158.621ZM277.824 139.822C289.727 138.376 315.978 135.261 320.65 141.268C325.322 147.164 315.422 171.969 310.972 182.981C309.638 186.318 312.53 187.653 315.533 185.095C335.11 168.632 340.227 134.26 336.223 129.255C332.218 124.36 297.847 120.134 276.935 134.817C273.709 137.152 274.265 140.267 277.824 139.822Z" fill="white"/>
</g>
<defs>
<clipPath id="clip0_627_10">
<rect width="341.297" height="200" fill="white"/>
</clipPath>
</defs>
</svg>
