<svg width="1187" height="200" viewBox="0 0 1187 200" fill="none" xmlns="http://www.w3.org/2000/svg">
<g clip-path="url(#clip0_628_24)">
<path fill-rule="evenodd" clip-rule="evenodd" d="M102.099 161.412V199.988C167.579 199.988 218.419 136.684 197.054 68.0391C187.757 38.1677 164.018 14.231 133.949 4.93323C65.3036 -16.4318 2 34.6068 2 100.087L40.7735 99.8887C40.7735 58.7413 81.5252 27.0895 124.651 42.7176C140.675 48.6523 153.335 61.313 159.27 77.3368C174.898 120.462 143.246 161.214 102.099 161.214V122.836H63.5232V161.412L33.8497 161.412V136.486H8.92384V161.412H33.8497V191.086H63.5232V161.412H102.099ZM358.083 57.752C346.609 49.839 332.366 45.6847 315.749 45.6847H279.547V160.62H315.749C332.366 160.62 346.609 156.466 358.083 147.96C364.413 143.608 369.359 137.277 372.722 129.562C376.085 121.847 377.865 112.747 377.865 102.46C377.865 92.3712 376.085 83.2713 372.722 75.5561C369.359 68.0388 364.413 62.1041 358.083 57.752ZM300.714 65.2693H312.188C324.849 65.2693 335.333 67.841 343.246 72.5888C351.95 77.93 356.5 88.019 356.5 102.46C356.5 117.495 351.95 127.979 343.246 133.716C335.729 138.662 325.244 141.234 312.386 141.234H300.714V65.2693ZM394.285 48.0586C396.659 45.6847 399.626 44.4978 403.187 44.4978C406.55 44.4978 409.715 45.6847 412.089 48.0586C414.661 50.2347 415.848 53.202 415.848 56.7629C415.848 60.1259 414.463 63.291 412.089 65.6649C409.715 68.2366 406.748 69.4236 403.187 69.4236C399.626 69.4236 396.659 68.0388 394.285 65.6649C391.713 63.291 390.526 60.3237 390.526 56.7629C390.526 53.3998 391.911 50.4325 394.285 48.0586ZM413.078 79.9082H392.702V161.016H413.078V79.9082ZM466.886 77.93C474.206 77.93 481.129 81.0952 487.262 86.6343H487.46V79.9083H507.44V153.301C507.44 165.566 503.879 175.457 496.56 182.777C489.438 190.096 479.547 193.855 467.48 193.855C458.38 193.855 450.862 191.877 444.73 187.92C438.597 183.964 434.047 179.809 431.08 175.655L430.684 175.062L444.532 161.807C451.852 171.501 457.588 175.259 467.084 175.259C473.216 175.259 478.162 173.479 481.723 169.918C485.284 166.159 487.064 161.016 487.064 154.29V152.51C481.525 156.862 474.799 159.038 466.886 159.038C455.61 159.038 446.312 155.081 438.993 147.564C431.673 139.651 428.113 129.958 428.113 118.484C428.113 106.812 431.673 96.9211 438.993 89.4038C446.312 81.8865 455.61 77.93 466.886 77.93ZM467.875 140.442C473.81 140.442 478.36 138.464 481.921 134.508C485.284 130.551 487.262 125.21 487.262 118.682C487.262 112.154 485.482 106.614 481.921 102.658C478.36 98.5037 473.81 96.5255 467.875 96.5255C462.138 96.5255 457.588 98.7015 454.028 102.658C450.467 106.614 448.686 112.154 448.686 118.682C448.686 125.21 450.467 130.551 454.028 134.508C457.391 138.464 461.941 140.442 467.875 140.442ZM545.027 79.9082H524.651V161.016H545.027V79.9082ZM526.233 48.0586C528.607 45.6847 531.575 44.4978 535.135 44.4978C538.498 44.4978 541.664 45.6847 544.037 48.0586C546.609 50.2347 547.796 53.202 547.796 56.7629C547.796 60.1259 546.411 63.291 544.037 65.6649C541.664 68.2366 538.696 69.4236 535.135 69.4236C531.575 69.4236 528.607 68.0388 526.233 65.6649C523.662 63.291 522.475 60.3237 522.475 56.7629C522.475 53.3998 523.859 50.4325 526.233 48.0586ZM589.735 57.9498H569.755V79.9083H558.083V98.5037H569.755V132.134C569.755 142.618 571.931 150.136 576.085 154.488C580.239 158.84 587.559 161.016 598.043 161.016C601.406 161.016 604.769 160.818 607.935 160.62H608.924V142.025L602 142.421C597.054 142.421 593.889 141.629 592.307 139.849C590.724 138.068 589.933 134.508 589.933 129.166V98.5037H608.924V79.9083H589.933V57.9498H589.735ZM704.275 45.8825H724.651V160.818H704.275V45.8825ZM930.585 131.936C927.025 136.09 923.266 139.651 920.299 141.432C917.529 143.212 913.968 144.201 909.814 144.201C903.879 144.201 898.934 142.025 894.977 137.475C891.021 132.925 889.042 127.188 889.042 120.264C889.042 113.341 891.021 107.604 894.779 103.251C898.736 98.7015 903.484 96.5255 909.418 96.5255C915.947 96.5255 922.87 100.68 928.805 107.604L942.257 94.745C933.553 83.2713 922.277 77.93 908.825 77.93C897.549 77.93 887.855 82.0843 879.943 89.9973C872.03 97.9102 868.073 108.197 868.073 120.264C868.073 132.332 872.03 142.421 879.943 150.531C887.855 158.642 897.549 162.599 908.825 162.599C923.662 162.599 935.531 156.268 943.444 144.597L930.585 131.936ZM1002.59 81.4908C1007.34 83.8647 1011.3 87.2277 1014.26 91.1842C1017.23 95.1407 1019.41 99.6906 1020.79 104.241C1022.18 108.988 1022.97 113.934 1022.97 119.275L1022.77 126.793H968.765C969.161 131.936 971.139 136.09 974.502 139.058C978.063 142.421 982.613 144.003 988.35 144.003C992.109 144.003 995.669 143.41 998.637 141.827C1000.62 140.838 1002.59 139.453 1004.57 137.475C1004.97 137.079 1005.38 136.684 1005.78 136.288C1007.01 135.101 1008.23 133.914 1009.12 132.727L1022.38 145.586L1021.98 146.179C1013.67 157.257 1002.2 162.796 988.548 162.796C976.481 162.796 966.391 158.84 959.072 151.125C951.555 143.212 947.796 133.123 947.796 120.858C947.796 108.791 951.357 98.7015 958.083 90.3929C965.007 82.0843 974.304 77.93 985.778 77.93C992.109 77.93 997.648 79.117 1002.59 81.4908ZM969.805 109.977H1001.21C1000.81 106.219 999.428 103.054 997.054 100.482C994.483 97.7124 990.724 96.3276 985.778 96.3276C981.426 96.3276 977.865 97.7124 975.096 100.482C972.567 103.011 970.803 106.113 969.805 109.977ZM1092.6 85.843C1086.47 80.5017 1077.96 77.93 1067.28 77.93C1060.56 77.93 1054.23 79.5126 1048.49 82.2821C1043.15 85.0517 1038 89.4038 1034.64 95.3385L1034.84 95.5363L1047.9 107.999C1053.24 99.4928 1059.17 96.5255 1067.08 96.5255C1071.44 96.5255 1074.8 97.7124 1077.57 99.8885C1080.34 102.065 1081.53 105.032 1081.53 108.593V112.549C1076.38 110.967 1071.44 110.175 1066.49 110.175C1056.4 110.175 1048.09 112.549 1041.96 117.297C1035.83 122.045 1032.66 128.969 1032.66 137.475C1032.66 144.992 1035.23 151.323 1040.58 155.873C1045.92 160.225 1052.45 162.599 1060.16 162.599C1067.88 162.599 1075.19 159.433 1081.72 154.092V160.818H1101.7V108.791C1102.1 98.8994 1098.93 91.1842 1092.6 85.843ZM1056.4 129.958C1058.78 128.375 1061.94 127.584 1066.09 127.584C1071.04 127.584 1076.18 128.573 1081.53 130.551V138.464C1077.17 142.618 1071.24 144.597 1063.92 144.597C1060.36 144.597 1057.59 143.805 1055.81 142.223C1054.03 140.64 1053.04 138.86 1053.04 136.288C1053.04 133.519 1054.23 131.54 1056.4 129.958ZM1156.7 77.93C1166.79 77.93 1174.7 81.0952 1180.44 87.4256C1186.17 93.7559 1188.94 102.658 1188.94 113.934V160.62H1168.57V113.736C1168.57 108.395 1167.18 104.241 1164.61 101.075C1162.04 98.108 1158.48 96.5255 1153.93 96.5255C1148.59 96.5255 1144.83 98.1081 1141.86 101.669C1138.89 105.032 1137.51 109.977 1137.51 116.11V161.016H1117.13V79.9083H1137.11V84.8539C1142.06 80.3039 1148.59 77.93 1156.7 77.93ZM678.756 85.843C672.623 80.5017 664.117 77.93 653.434 77.93C646.708 77.93 640.378 79.5126 634.641 82.2821C629.3 85.0517 624.156 89.4038 620.793 95.3385L620.991 95.5363L634.047 107.999C639.389 99.4928 645.323 96.5255 653.236 96.5255C657.588 96.5255 660.951 97.7124 663.721 99.8885C666.49 102.065 667.677 105.032 667.677 108.593V112.549C662.534 110.967 657.588 110.175 652.643 110.175C642.554 110.175 634.245 112.549 628.113 117.297C621.98 122.045 618.815 128.969 618.815 137.475C618.815 144.992 621.387 151.323 626.728 155.873C632.069 160.225 638.597 162.599 646.312 162.599C654.028 162.599 661.347 159.433 667.875 154.092V160.818H687.855V108.791C688.053 98.8994 684.888 91.1842 678.756 85.843ZM642.554 129.958C644.928 128.375 648.093 127.584 652.247 127.584C657.193 127.584 662.336 128.573 667.677 130.551V138.464C663.325 142.618 657.391 144.597 650.071 144.597C646.51 144.597 643.741 143.805 641.96 142.223C640.18 140.64 639.191 138.86 639.191 136.288C639.191 133.519 640.18 131.54 642.554 129.958ZM739.29 103.251C739.29 136.09 765.996 162.599 798.637 162.599C831.278 162.599 857.984 136.09 857.984 103.251C857.984 70.4127 831.476 43.9043 798.637 43.9043C765.798 43.9043 739.29 70.4127 739.29 103.251ZM760.259 103.251C760.259 82.0843 777.47 64.8736 798.637 64.8736C819.804 64.8736 837.015 82.0843 837.015 103.251C837.015 124.419 819.804 141.629 798.637 141.629C777.47 141.629 760.259 124.419 760.259 103.251Z" fill="white"/>
</g>
<defs>
<clipPath id="clip0_628_24">
<rect width="1186.94" height="200" fill="white"/>
</clipPath>
</defs>
</svg>
