<svg xmlns="http://www.w3.org/2000/svg" xml:space="preserve" width="1080" height="200"><g><path d="M63.1 56.9h2.8v12.5h-2.8v-5.3h-4.7v5.3h-2.8V56.9h2.8v4.8h4.7v-4.8zM72.5 63.1c0 .6.1 1.2.2 1.7.2.5.4.9.6 1.3.3.4.6.6 1 .8.4.2.9.3 1.4.3.5 0 1-.1 1.4-.3.4-.2.8-.5 1-.8.3-.4.5-.8.6-1.3.2-.5.2-1 .2-1.7 0-.6-.1-1.2-.2-1.7-.2-.5-.4-.9-.6-1.3-.3-.4-.6-.6-1-.8-.4-.2-.9-.3-1.4-.3-.5 0-1 .1-1.4.3-.4.2-.8.5-1 .8-.3.4-.5.8-.6 1.3-.1.6-.2 1.1-.2 1.7zm9.5 0c0 1.1-.2 2-.5 2.8-.3.8-.8 1.5-1.3 2-.6.5-1.2 1-2 1.2-.8.3-1.6.4-2.5.4-.9 0-1.7-.1-2.4-.4-.8-.3-1.4-.7-2-1.2-.6-.5-1-1.2-1.3-2-.3-.8-.5-1.7-.5-2.8 0-1.1.2-2 .5-2.8.3-.8.8-1.5 1.4-2 .6-.6 1.2-1 2-1.2.8-.3 1.5-.4 2.4-.4.9 0 1.7.1 2.4.4.8.3 1.4.7 2 1.2.6.6 1 1.2 1.3 2 .4.8.5 1.8.5 2.8zM89.1 67.2c.4 0 .7 0 1-.1.3-.1.5-.2.6-.3.2-.1.3-.2.3-.4.1-.2.1-.3.1-.5 0-.4-.2-.7-.6-1-.4-.3-1-.6-2-.9-.4-.1-.8-.3-1.2-.5-.4-.2-.8-.4-1.1-.7-.3-.3-.6-.6-.8-1-.2-.4-.3-.9-.3-1.5s.1-1.1.3-1.6c.2-.5.5-.9.9-1.2.4-.3.9-.6 1.4-.7.6-.2 1.2-.3 1.9-.3.8 0 1.6.1 2.2.3.6.2 1.1.4 1.5.6l-.8 2.2c-.3-.2-.7-.3-1.2-.5-.3 0-.8-.1-1.4-.1-.7 0-1.2.1-1.5.3-.3.2-.4.5-.4.9 0 .2.1.4.2.6.1.2.3.3.5.4.2.1.4.2.7.3.3.1.5.2.9.3.6.2 1.2.5 1.7.7.5.2.9.5 1.2.8.3.3.6.7.7 1.1.2.4.2.9.2 1.5 0 1.2-.4 2.1-1.2 2.7-.8.6-2.1 1-3.7 1-.6 0-1.1 0-1.5-.1-.4-.1-.8-.1-1.2-.2l-.9-.3c-.2-.1-.5-.2-.6-.3l.8-2.2c.4.2.8.4 1.4.5.4.1 1.1.2 1.9.2zM106.4 56.9v2.4h-3.8v10.1h-2.8V59.3H96v-2.4h10.4zM109.6 69.4h2.8V56.9h-2.8v12.5zM125 69.4c-.8-1.4-1.7-2.8-2.6-4.2-.9-1.4-1.9-2.7-3-3.9v8.2h-2.8V56.9h2.3c.4.4.8.9 1.3 1.5l1.5 1.8c.5.7 1 1.3 1.5 2s1 1.4 1.4 2v-7.4h2.8v12.5H125zM137.6 59.1c-1.3 0-2.3.4-2.8 1.1-.6.7-.9 1.7-.9 3 0 .6.1 1.2.2 1.7s.4.9.6 1.3c.3.4.6.6 1.1.8.4.2.9.3 1.5.3h.8c.2 0 .4 0 .6-.1v-4.3h2.8v6.2c-.3.1-.9.3-1.6.4-.7.1-1.7.2-2.8.2-.9 0-1.8-.1-2.6-.4-.8-.3-1.4-.7-2-1.3-.5-.6-1-1.2-1.3-2-.3-.8-.4-1.7-.4-2.8 0-1 .2-2 .5-2.8.3-.8.8-1.5 1.3-2 .6-.6 1.2-1 2-1.3.8-.3 1.6-.4 2.4-.4.6 0 1.1 0 1.6.1s.9.2 1.2.3c.3.1.6.2.8.3.2.1.4.2.5.3l-.8 2.2c-.4-.2-.8-.4-1.3-.5-.2-.3-.8-.3-1.4-.3zM145.5 69.4V56.9h8.4v2.4h-5.6v2.4h5V64h-5v3h6v2.4h-8.8zM161.6 59.1h-1v3.4h.8c1.1 0 1.8-.1 2.3-.4.5-.3.7-.7.7-1.3 0-.6-.2-1-.7-1.3-.5-.2-1.2-.4-2.1-.4zm-.2-2.3c1.9 0 3.3.3 4.3 1s1.5 1.7 1.5 3.1c0 .9-.2 1.6-.6 2.1-.4.5-1 1-1.7 1.3.3.3.5.7.8 1.1.3.4.6.8.8 1.3.3.4.5.9.8 1.4.3.5.5.9.7 1.4h-3.1c-.2-.4-.5-.8-.7-1.2-.2-.4-.5-.8-.7-1.2-.2-.4-.5-.8-.7-1.1-.2-.4-.5-.7-.7-1h-1.4v4.6h-2.8V57.1c.6-.1 1.2-.2 1.9-.3h1.6zM18 62V48l7.1 3.8v6.3h9.4l7.2 3.9H18zm18.4-5v-9l7.3 3.7v9.5L36.4 57zm0 17.1v-6.3h-9.5l-7.3-4 24.1.2v14l-7.3-3.9zm-18.4 0v-9.2l7.1 4.1v8.7L18 74.1z" style="stroke:none;stroke-width:1;stroke-dasharray:none;stroke-linecap:butt;stroke-dashoffset:0;stroke-linejoin:miter;stroke-miterlimit:4;fill:#fff;opacity:1" transform="matrix(6.82 0 0 6.82 -94.26 -329.66)" vector-effect="non-scaling-stroke"/></g></svg>