<svg width="769" height="200" viewBox="0 0 769 200" fill="none" xmlns="http://www.w3.org/2000/svg">
<g clip-path="url(#clip0_628_15)">
<path fill-rule="evenodd" clip-rule="evenodd" d="M139.067 73.2954L166.856 88.5552L143.754 104.937L141.176 134.122L131.346 127.296L132.196 113.235C132.15 113.235 127.372 116.633 121.744 120.637L103.542 133.682L103.876 164.02L90.6788 152.962L90.2844 143.375C90.2659 143.375 90.2641 143.365 90.2581 143.36C90.2201 143.325 90.0115 143.478 84.2169 147.607L53.8794 169.238V169.329C53.8771 169.329 53.8747 169.328 53.8724 169.327C53.7988 169.298 53.7955 169.297 58.3542 200.061L32.6583 172.924L26.3178 142.101L34.5089 137.126L23.0565 126.386L14.8654 86.5377L27.3038 80.6371L10.8912 67.9105L0 15.2598L48.9344 0L84.854 17.2924L34.4027 36.6477L42.5939 92.6659L71.9302 77.4972L87.8271 88.1153L45.5063 112.249L51.5738 153.098L89.5715 127.509C89.5645 127.509 89.5589 127.514 89.554 127.514C89.4945 127.507 89.5382 126.602 88.5855 104.103L104.058 94.6227L115.434 102.116L115.722 87.554L139.067 73.2954ZM229.973 22.2677L255.122 16.2002V137.368C255.122 150.646 259.081 158.559 267 161.107C263.116 168.5 256.478 172.191 247.083 172.18C235.676 172.18 229.973 164.262 229.973 148.426V22.2677ZM283.14 170.133V83.0341H269.367V62.4046H308.594V170.103L283.14 170.133ZM296.125 20.6602C299.011 20.6602 301.832 21.516 304.232 23.1194C306.632 24.7228 308.502 27.0019 309.606 29.6683C310.711 32.3347 311 35.2687 310.437 38.0993C309.874 40.93 308.484 43.5301 306.443 45.5708C304.402 47.6116 301.802 49.0014 298.972 49.5645C296.141 50.1275 293.207 49.8385 290.541 48.7341C287.874 47.6296 285.595 45.7593 283.992 43.3596C282.388 40.9599 281.533 38.1386 281.533 35.2525C281.537 31.3836 283.075 27.6743 285.811 24.9386C288.547 22.2029 292.256 20.6642 296.125 20.6602ZM398.849 107.881V170.163H423.983V104.058C423.993 90.305 420.287 79.5908 412.864 71.9154C405.442 64.24 395.329 60.4023 382.527 60.4023C369.138 60.4023 359.025 64.4473 352.189 72.5373L347.639 62.4653H329.527V170.163H354.692V92.2871C357.311 88.9803 360.667 86.3312 364.491 84.551C368.14 82.6074 372.19 81.5377 376.323 81.4262C384.302 81.4262 390.051 83.5499 393.57 87.7668C397.089 91.9837 398.849 98.7034 398.849 107.881ZM437.496 116.041C437.496 99.5984 442.239 86.2145 451.724 75.8896C461.21 65.5648 473.734 60.4023 489.297 60.4023C505.669 60.4023 518.381 65.3676 527.432 75.2981C536.482 85.2285 541.033 98.8096 541.083 116.041C541.083 133.233 536.472 146.884 527.25 156.997C518.027 167.109 505.386 172.166 489.328 172.166C472.966 172.166 460.239 167.049 451.148 156.815C442.057 146.581 437.506 132.99 437.496 116.041ZM463.647 116.041C463.647 139.785 472.197 151.658 489.297 151.658C492.933 151.772 496.54 150.986 499.798 149.369C503.056 147.752 505.863 145.354 507.97 142.389C512.571 136.231 514.867 127.448 514.857 116.041C514.857 92.641 506.337 80.9358 489.297 80.9257C485.661 80.812 482.053 81.5953 478.791 83.2064C475.529 84.8175 472.714 87.2068 470.594 90.1634C465.963 96.3422 463.647 104.968 463.647 116.041ZM625.512 163.625V170.163H650.601V16.2002L625.451 22.2677V65.438C618.509 62.0237 610.859 60.2982 603.123 60.4019C596.136 60.2427 589.197 61.5942 582.78 64.364C576.364 67.1338 570.621 71.2566 565.944 76.4505C556.054 87.1495 551.109 101.014 551.109 118.043C551.12 135.083 555.427 148.366 564.033 157.891C572.639 167.417 584.46 172.18 599.498 172.18C604.736 172.18 609.938 171.314 614.894 169.617C619.884 167.903 623.434 165.901 625.512 163.625ZM608.72 81.7292C614.893 81.8669 620.827 84.1397 625.512 88.1608V144.406C624.435 145.878 622.145 147.273 618.625 148.79C615.82 150.063 612.799 150.794 609.721 150.944C588.121 150.934 577.321 139.734 577.321 117.345C577.361 105.878 580.077 97.0749 585.467 90.9366C590.857 84.7983 598.608 81.7292 608.72 81.7292ZM766.856 123.989H689.89C690.355 132.575 693.303 139.249 698.733 144.012C704.164 148.775 711.475 151.151 720.667 151.141C732.135 151.141 740.857 148.158 746.833 142.192L756.587 161.456C747.738 168.616 734.526 172.206 716.951 172.226C700.518 172.226 687.524 167.412 677.967 157.785C668.411 148.158 663.633 134.719 663.633 117.467C663.633 100.498 668.881 86.7449 679.378 76.2077C684.255 71.1275 690.125 67.1042 696.622 64.3878C703.12 61.6714 710.106 60.3198 717.148 60.417C732.772 60.417 745.317 65.0789 754.782 74.4026C764.247 83.7263 768.975 95.5984 768.965 110.019C768.733 114.735 768.027 119.415 766.856 123.989ZM690.785 105.074H743.709C741.959 89.3185 733.242 81.4358 717.558 81.4257C703.198 81.4257 694.274 89.3084 690.785 105.074Z" fill="white"/>
</g>
<defs>
<clipPath id="clip0_628_15">
<rect width="768.965" height="200" fill="white"/>
</clipPath>
</defs>
</svg>
