<svg width="837" height="200" viewBox="0 0 837 200" fill="none" xmlns="http://www.w3.org/2000/svg">
<g clip-path="url(#clip0_628_5)">
<path fill-rule="evenodd" clip-rule="evenodd" d="M1.77802 17.6923C0.67751 15.9469 0.0652147 13.9382 0.00492692 11.8756C-0.0553608 9.81304 0.438565 7.77203 1.43524 5.96525C2.43192 4.15846 3.89488 2.65201 5.6717 1.60284C7.44852 0.553669 9.47418 0.000177002 11.5376 2.87754e-05H70.6482C72.5982 -0.00433481 74.5173 0.48765 76.2247 1.42966C77.9321 2.37167 79.3716 3.73271 80.4078 5.38464L162.379 135.433C163.541 137.275 164.157 139.409 164.157 141.587C164.157 143.765 163.541 145.898 162.379 147.74L132.836 194.712C131.796 196.36 130.356 197.718 128.649 198.66C126.942 199.601 125.025 200.095 123.076 200.095C121.127 200.095 119.21 199.601 117.503 198.66C115.797 197.718 114.356 196.36 113.316 194.712L1.77802 17.6923ZM413.679 45.0001H417.309C418.252 44.9997 419.18 45.2303 420.013 45.6717C420.846 46.1132 421.559 46.752 422.087 47.5324C422.616 48.3128 422.946 49.2109 423.048 50.1481C423.149 51.0854 423.019 52.0332 422.67 52.9088L384.208 149.063C383.783 150.136 383.044 151.057 382.088 151.704C381.132 152.352 380.003 152.696 378.848 152.692H371.155C370 152.696 368.871 152.352 367.915 151.704C366.959 151.057 366.22 150.136 365.795 149.063L327.333 52.9088C326.984 52.0332 326.854 51.0854 326.955 50.1481C327.057 49.2109 327.387 48.3128 327.916 47.5324C328.444 46.752 329.157 46.1132 329.99 45.6717C330.823 45.2303 331.751 44.9997 332.694 45.0001H336.324C337.478 44.9963 338.608 45.3406 339.564 45.9881C340.52 46.6356 341.259 47.5562 341.684 48.6299L375.001 131.899L408.319 48.6299C408.741 47.5543 409.479 46.6318 410.436 45.9839C411.393 45.3359 412.524 44.993 413.679 45.0001ZM534.617 50.7693C534.611 49.2412 534.001 47.7774 532.92 46.6969C531.84 45.6163 530.376 45.0064 528.848 45.0001H525.002C523.471 45.0001 522.004 45.6079 520.922 46.6899C519.84 47.7718 519.232 49.2392 519.232 50.7693V110.385C519.232 118.035 516.193 125.372 510.783 130.782C505.374 136.192 498.037 139.231 490.386 139.231C482.736 139.231 475.399 136.192 469.989 130.782C464.579 125.372 461.54 118.035 461.54 110.385V50.7693C461.534 49.2412 460.924 47.7774 459.843 46.6969C458.763 45.6163 457.299 45.0064 455.771 45.0001H451.925C450.395 45.0001 448.927 45.6079 447.845 46.6899C446.763 47.7718 446.155 49.2392 446.155 50.7693V110.385C446.155 122.115 450.815 133.366 459.11 141.661C467.405 149.955 478.655 154.616 490.386 154.616C502.117 154.616 513.367 149.955 521.662 141.661C529.957 133.366 534.617 122.115 534.617 110.385V50.7693ZM580.771 137.308H632.694C634.222 137.314 635.686 137.924 636.766 139.005C637.847 140.085 638.457 141.549 638.463 143.077V146.923C638.463 148.453 637.855 149.921 636.773 151.003C635.691 152.085 634.224 152.692 632.694 152.692H571.155C570.397 152.696 569.645 152.549 568.944 152.26C568.242 151.971 567.605 151.546 567.069 151.01C566.532 150.473 566.108 149.836 565.819 149.135C565.53 148.433 565.383 147.682 565.386 146.923V50.7693C565.386 49.2392 565.994 47.7718 567.076 46.6899C568.158 45.6079 569.625 45.0001 571.155 45.0001H575.002C576.53 45.0064 577.993 45.6163 579.074 46.6969C580.155 47.7774 580.764 49.2412 580.771 50.7693V137.308ZM717.309 45.0001H636.54C635.01 45.0001 633.542 45.6079 632.461 46.6899C631.379 47.7718 630.771 49.2392 630.771 50.7693V54.6155C630.768 55.374 630.915 56.1256 631.203 56.827C631.492 57.5284 631.917 58.1657 632.453 58.702C632.99 59.2384 633.627 59.6632 634.328 59.952C635.03 60.2409 635.781 60.3879 636.54 60.3847H669.232V146.923C669.229 147.682 669.376 148.433 669.665 149.135C669.954 149.836 670.379 150.473 670.915 151.01C671.451 151.546 672.089 151.971 672.79 152.26C673.491 152.549 674.243 152.696 675.002 152.692H678.848C680.378 152.692 681.845 152.085 682.927 151.003C684.009 149.921 684.617 148.453 684.617 146.923V60.3847H717.309C718.839 60.3847 720.307 59.7769 721.389 58.695C722.471 57.613 723.078 56.1456 723.078 54.6155V50.7693C723.072 49.2412 722.462 47.7774 721.382 46.6969C720.301 45.6163 718.837 45.0064 717.309 45.0001ZM835.771 144.039L814.737 107.765C821.667 104.809 827.363 99.5519 830.863 92.8808C834.363 86.2098 835.452 78.5347 833.945 71.1536C832.438 63.7724 828.428 57.1381 822.594 52.3726C816.759 47.607 809.458 45.0028 801.925 45.0001H755.771C754.241 45.0001 752.773 45.6079 751.691 46.6899C750.609 47.7718 750.002 49.2392 750.002 50.7693V146.923C749.998 147.682 750.145 148.433 750.434 149.135C750.723 149.836 751.148 150.473 751.684 151.01C752.221 151.546 752.858 151.971 753.559 152.26C754.261 152.549 755.012 152.696 755.771 152.692H759.617C761.147 152.692 762.614 152.085 763.696 151.003C764.778 149.921 765.386 148.453 765.386 146.923V110.385H799.04L821.925 149.808C822.429 150.687 823.158 151.417 824.036 151.924C824.914 152.43 825.911 152.696 826.925 152.692H830.843C831.856 152.693 832.851 152.427 833.729 151.921C834.606 151.415 835.335 150.687 835.842 149.809C836.349 148.932 836.616 147.937 836.616 146.924C836.616 145.911 836.349 144.916 835.843 144.039H835.771ZM765.386 60.3847H801.925C806.515 60.3847 810.917 62.2082 814.163 65.454C817.409 68.6999 819.232 73.1021 819.232 77.6924C819.232 82.2827 817.409 86.685 814.163 89.9308C810.917 93.1766 806.515 95.0001 801.925 95.0001H765.386V60.3847ZM184.12 92.9317C182.406 91.9797 180.963 90.6068 179.927 88.9423L134.975 17.6923C133.875 15.9469 133.262 13.9382 133.202 11.8756C133.142 9.81304 133.636 7.77203 134.632 5.96525C135.629 4.15846 137.092 2.65201 138.869 1.60284C140.646 0.553669 142.671 0.000177002 144.735 2.87754e-05H203.845C205.795 -0.00433481 207.714 0.48765 209.422 1.42966C211.129 2.37167 212.569 3.73271 213.605 5.38464L228.99 29.7837C230.151 31.626 230.768 33.7596 230.768 35.9375C230.768 38.1155 230.151 40.249 228.99 42.0914L209.615 72.8366L199.518 88.9423C198.482 90.6068 197.039 91.9797 195.325 92.9317C193.611 93.8836 191.683 94.3832 189.723 94.3832C187.762 94.3832 185.834 93.8836 184.12 92.9317Z" fill="white"/>
</g>
<defs>
<clipPath id="clip0_628_5">
<rect width="836.539" height="200" fill="white"/>
</clipPath>
</defs>
</svg>
